<svg width="2154" height="3334" viewBox="0 0 2154 3334" fill="none" xmlns="http://www.w3.org/2000/svg">
<g id="GH MALL, 6THF">
<g id="REMARKS">
<path id="TIMEZONE" d="M623.658 1377.62V1380.58H616.058V1405.5H612.418V1380.58H604.778V1377.62H623.658ZM631.779 1377.62V1405.5H628.139V1377.62H631.779ZM666.262 1377.82V1405.5H662.622V1384.86L653.422 1405.5H650.862L641.622 1384.82V1405.5H637.982V1377.82H641.902L652.142 1400.7L662.382 1377.82H666.262ZM676.075 1380.58V1389.9H686.235V1392.9H676.075V1402.5H687.435V1405.5H672.435V1377.58H687.435V1380.58H676.075ZM696.023 1402.34H709.623V1405.5H691.703V1402.62L705.223 1380.78H691.863V1377.62H709.543V1380.5L696.023 1402.34ZM727.224 1405.78C724.637 1405.78 722.277 1405.18 720.144 1403.98C718.011 1402.75 716.317 1401.06 715.064 1398.9C713.837 1396.71 713.224 1394.26 713.224 1391.54C713.224 1388.82 713.837 1386.38 715.064 1384.22C716.317 1382.03 718.011 1380.34 720.144 1379.14C722.277 1377.91 724.637 1377.3 727.224 1377.3C729.837 1377.3 732.211 1377.91 734.344 1379.14C736.477 1380.34 738.157 1382.02 739.384 1384.18C740.611 1386.34 741.224 1388.79 741.224 1391.54C741.224 1394.29 740.611 1396.74 739.384 1398.9C738.157 1401.06 736.477 1402.75 734.344 1403.98C732.211 1405.18 729.837 1405.78 727.224 1405.78ZM727.224 1402.62C729.171 1402.62 730.917 1402.17 732.464 1401.26C734.037 1400.35 735.264 1399.06 736.144 1397.38C737.051 1395.7 737.504 1393.75 737.504 1391.54C737.504 1389.3 737.051 1387.35 736.144 1385.7C735.264 1384.02 734.051 1382.73 732.504 1381.82C730.957 1380.91 729.197 1380.46 727.224 1380.46C725.251 1380.46 723.491 1380.91 721.944 1381.82C720.397 1382.73 719.171 1384.02 718.264 1385.7C717.384 1387.35 716.944 1389.3 716.944 1391.54C716.944 1393.75 717.384 1395.7 718.264 1397.38C719.171 1399.06 720.397 1400.35 721.944 1401.26C723.517 1402.17 725.277 1402.62 727.224 1402.62ZM767.949 1405.5H764.309L749.669 1383.3V1405.5H746.029V1377.58H749.669L764.309 1399.74V1377.58H767.949V1405.5ZM777.794 1380.58V1389.9H787.954V1392.9H777.794V1402.5H789.154V1405.5H774.154V1377.58H789.154V1380.58H777.794Z" fill="black"/>
<path id="THREE DOTS" d="M1203.57 2626.56V2628.04H1199.77V2640.5H1197.95V2628.04H1194.13V2626.56H1203.57ZM1216.55 2626.56V2640.5H1214.73V2634.18H1207.63V2640.5H1205.81V2626.56H1207.63V2632.68H1214.73V2626.56H1216.55ZM1227 2640.5L1223.68 2634.8H1221.48V2640.5H1219.66V2626.56H1224.16C1225.21 2626.56 1226.1 2626.74 1226.82 2627.1C1227.55 2627.46 1228.1 2627.95 1228.46 2628.56C1228.82 2629.17 1229 2629.87 1229 2630.66C1229 2631.62 1228.72 2632.47 1228.16 2633.2C1227.61 2633.93 1226.79 2634.42 1225.68 2634.66L1229.18 2640.5H1227ZM1221.48 2633.34H1224.16C1225.15 2633.34 1225.89 2633.1 1226.38 2632.62C1226.87 2632.13 1227.12 2631.47 1227.12 2630.66C1227.12 2629.83 1226.87 2629.19 1226.38 2628.74C1225.9 2628.29 1225.16 2628.06 1224.16 2628.06H1221.48V2633.34ZM1233.65 2628.04V2632.7H1238.73V2634.2H1233.65V2639H1239.33V2640.5H1231.83V2626.54H1239.33V2628.04H1233.65ZM1243.9 2628.04V2632.7H1248.98V2634.2H1243.9V2639H1249.58V2640.5H1242.08V2626.54H1249.58V2628.04H1243.9ZM1262.01 2626.56C1263.53 2626.56 1264.84 2626.85 1265.95 2627.42C1267.07 2627.98 1267.92 2628.79 1268.51 2629.84C1269.11 2630.89 1269.41 2632.13 1269.41 2633.56C1269.41 2634.99 1269.11 2636.23 1268.51 2637.28C1267.92 2638.32 1267.07 2639.12 1265.95 2639.68C1264.84 2640.23 1263.53 2640.5 1262.01 2640.5H1257.67V2626.56H1262.01ZM1262.01 2639C1263.81 2639 1265.18 2638.53 1266.13 2637.58C1267.07 2636.62 1267.55 2635.28 1267.55 2633.56C1267.55 2631.83 1267.07 2630.47 1266.11 2629.5C1265.16 2628.53 1263.79 2628.04 1262.01 2628.04H1259.49V2639H1262.01ZM1278.13 2640.64C1276.83 2640.64 1275.65 2640.34 1274.59 2639.74C1273.52 2639.13 1272.67 2638.28 1272.05 2637.2C1271.43 2636.11 1271.13 2634.88 1271.13 2633.52C1271.13 2632.16 1271.43 2630.94 1272.05 2629.86C1272.67 2628.77 1273.52 2627.92 1274.59 2627.32C1275.65 2626.71 1276.83 2626.4 1278.13 2626.4C1279.43 2626.4 1280.62 2626.71 1281.69 2627.32C1282.75 2627.92 1283.59 2628.76 1284.21 2629.84C1284.82 2630.92 1285.13 2632.15 1285.13 2633.52C1285.13 2634.89 1284.82 2636.12 1284.21 2637.2C1283.59 2638.28 1282.75 2639.13 1281.69 2639.74C1280.62 2640.34 1279.43 2640.64 1278.13 2640.64ZM1278.13 2639.06C1279.1 2639.06 1279.97 2638.83 1280.75 2638.38C1281.53 2637.93 1282.15 2637.28 1282.59 2636.44C1283.04 2635.6 1283.27 2634.63 1283.27 2633.52C1283.27 2632.4 1283.04 2631.43 1282.59 2630.6C1282.15 2629.76 1281.54 2629.11 1280.77 2628.66C1279.99 2628.21 1279.11 2627.98 1278.13 2627.98C1277.14 2627.98 1276.26 2628.21 1275.49 2628.66C1274.71 2629.11 1274.1 2629.76 1273.65 2630.6C1273.21 2631.43 1272.99 2632.4 1272.99 2633.52C1272.99 2634.63 1273.21 2635.6 1273.65 2636.44C1274.1 2637.28 1274.71 2637.93 1275.49 2638.38C1276.27 2638.83 1277.15 2639.06 1278.13 2639.06ZM1296.11 2626.56V2628.04H1292.31V2640.5H1290.49V2628.04H1286.67V2626.56H1296.11ZM1302.77 2640.64C1301.85 2640.64 1301.02 2640.48 1300.29 2640.16C1299.57 2639.83 1299 2639.37 1298.59 2638.8C1298.18 2638.21 1297.96 2637.54 1297.95 2636.78H1299.89C1299.96 2637.43 1300.22 2637.99 1300.69 2638.44C1301.17 2638.88 1301.86 2639.1 1302.77 2639.1C1303.64 2639.1 1304.32 2638.89 1304.81 2638.46C1305.32 2638.02 1305.57 2637.46 1305.57 2636.78C1305.57 2636.25 1305.42 2635.81 1305.13 2635.48C1304.84 2635.15 1304.47 2634.89 1304.03 2634.72C1303.59 2634.55 1303 2634.36 1302.25 2634.16C1301.33 2633.92 1300.59 2633.68 1300.03 2633.44C1299.48 2633.2 1299.01 2632.83 1298.61 2632.32C1298.22 2631.8 1298.03 2631.11 1298.03 2630.24C1298.03 2629.48 1298.22 2628.81 1298.61 2628.22C1299 2627.63 1299.54 2627.18 1300.23 2626.86C1300.94 2626.54 1301.74 2626.38 1302.65 2626.38C1303.96 2626.38 1305.02 2626.71 1305.85 2627.36C1306.69 2628.01 1307.16 2628.88 1307.27 2629.96H1305.27C1305.2 2629.43 1304.92 2628.96 1304.43 2628.56C1303.94 2628.15 1303.28 2627.94 1302.47 2627.94C1301.71 2627.94 1301.09 2628.14 1300.61 2628.54C1300.13 2628.93 1299.89 2629.47 1299.89 2630.18C1299.89 2630.69 1300.03 2631.1 1300.31 2631.42C1300.6 2631.74 1300.96 2631.99 1301.37 2632.16C1301.8 2632.32 1302.39 2632.51 1303.15 2632.72C1304.07 2632.97 1304.81 2633.23 1305.37 2633.48C1305.93 2633.72 1306.41 2634.1 1306.81 2634.62C1307.21 2635.13 1307.41 2635.82 1307.41 2636.7C1307.41 2637.38 1307.23 2638.02 1306.87 2638.62C1306.51 2639.22 1305.98 2639.71 1305.27 2640.08C1304.56 2640.45 1303.73 2640.64 1302.77 2640.64Z" fill="black"/>
</g>
<g id="UNESTABLISHED BLDG">
<path id="Vector 721" d="M346 674.5H259L259.5 824.5H346V674.5Z" stroke="black"/>
<path id="Vector 722" d="M346 828.5H259L259.5 907.5H346V828.5Z" stroke="black"/>
<path id="Vector 723" d="M738 832.5H690L690.276 873.5H738V832.5Z" stroke="black"/>
<path id="Vector 724" d="M830 708.5H742L742.506 873.5H830V708.5Z" stroke="black"/>
<path id="Vector 726" d="M365 1167.5H259L259.609 1230.5H365V1167.5Z" stroke="black"/>
<path id="Vector 727" d="M347 1234.5H259L259.506 1297.5H347V1234.5Z" stroke="black"/>
<path id="Vector 728" d="M347 1303.5H259L259.506 1452.5H347V1303.5Z" stroke="black"/>
<path id="Vector 729" d="M320 1457.5H259L259.351 1545.5H320V1457.5Z" stroke="black"/>
<path id="Vector 730" d="M355 1550.5H259L259.552 1638.5H355V1550.5Z" stroke="black"/>
<path id="Vector 741" d="M1086 1714.5H864V1799.5H1086V1714.5Z" stroke="black"/>
<path id="Vector 743" d="M1086 1803.5H864V1888.5H1086V1803.5Z" stroke="black"/>
<path id="Vector 744" d="M1086 1892.5H864V1977.5H1086V1892.5Z" stroke="black"/>
<path id="Vector 745" d="M1086 1981.5H864V2063.5H1086V1981.5Z" stroke="black"/>
<path id="Vector 752" d="M1747 2545.5H1569V2593.5H1747V2545.5Z" stroke="black"/>
<path id="Vector 763" d="M1310 2227.5H1170V2261.5H1310V2227.5Z" stroke="black"/>
<path id="Vector 764" d="M407 2827.5H263V2900.5H407V2827.5Z" stroke="black"/>
<path id="Vector 765" d="M355 2907.5H263V2955.5H355V2907.5Z" stroke="black"/>
<path id="Vector 766" d="M729 649.5H593L734 293.5L824.5 329.5L729 577.5V649.5Z" stroke="black"/>
<path id="Vector 767" d="M977 649.5H733V580.5L750.5 537.5L1185 717L1169 754L1117 734V704H1018V665L977 649.5Z" stroke="black"/>
<path id="Vector 768" d="M376 907.5V708.5H722V762.5H686.5V907.5H376Z" stroke="black"/>
<path id="Vector 769" d="M1111.5 708.5H843V1161.5H1170V917L1376 374.5L792.5 142.5L737.5 288.5L831.5 327L751 533.5L1190 714L1170 758.5L1122.5 740.5V1119.5H1111.5V708.5Z" stroke="black"/>
<path id="Vector 772" d="M258 1869.5V1808H522V1931.5H325V1869.5H258Z" stroke="black"/>
<path id="Vector 770" d="M314 1120.5V930.5H798.5V1160.5H403.5V1120.5H314Z" stroke="black"/>
<path id="Vector 771" d="M1170 1274.5H1057V1371H1084.5V1415.5H1170V1274.5Z" stroke="black"/>
<path id="Vector 753" d="M1749 2659.5H1572V2707.5H1749V2659.5Z" stroke="black"/>
<path id="Vector 754" d="M1567 2659.5H1521V2707.5H1567V2659.5Z" stroke="black"/>
<path id="Vector 755" d="M1471 2648.5H1338V2703.5H1471V2648.5Z" stroke="black"/>
<path id="Vector 756" d="M1331 2821.5H1170V2939.5H1331V2821.5Z" stroke="black"/>
<path id="Vector 757" d="M1331 3111.5H1175V3186.5H1331V3111.5Z" stroke="black"/>
<path id="Vector 758" d="M1170 3081.5H1026V3286.5H1170V3081.5Z" stroke="black"/>
<path id="Vector 759" d="M869 3097.5H677V3258.5H869V3097.5Z" stroke="black"/>
<path id="Vector 760" d="M1749 2711.5H1528V2939.5H1749V2711.5Z" stroke="black"/>
<path id="Vector 761" d="M2032 2945.5H1842V3029.5H2032V2945.5Z" stroke="black"/>
<path id="Vector 762" d="M1871 2605.5H1830V2641.5H1871V2605.5Z" stroke="black"/>
<path id="Vector 746" d="M809 1892.5H769V1968.5H809V1892.5Z" stroke="black"/>
<path id="Vector 747" d="M807 1767.5H769V1845.5H807V1767.5Z" stroke="black"/>
<path id="Vector 742" d="M1086 1641.5H864V1710.5H1086V1641.5Z" stroke="black"/>
<path id="Vector 773" d="M522 1644.5H258V1803.5H522V1644.5Z" stroke="black"/>
<path id="Vector 774" d="M319 1873.5H258V1968.5H349V1935H319V1873.5Z" stroke="black"/>
<path id="Vector 775" d="M350 2283.5H260V2444.5H458L518 2343V2309.5H350V2283.5Z" stroke="black"/>
<path id="Vector 748" d="M1169 1615.5H1094V1732.5H1169V1615.5Z" stroke="black"/>
<path id="Vector 749" d="M1169 1498.5H1057V1611.5H1169V1498.5Z" stroke="black"/>
<path id="Vector 750" d="M1169 1421.5H1057V1494.5H1169V1421.5Z" stroke="black"/>
<path id="Vector 751" d="M1169 1167.5H1024V1269.5H1169V1167.5Z" stroke="black"/>
<path id="Vector 732" d="M522 1935.5H372L372.862 2063.5H522V1935.5Z" stroke="black"/>
<path id="Vector 733" d="M522 2066.5H377L377.833 2188.5H522V2066.5Z" stroke="black"/>
<path id="Vector 734" d="M347 1973.5H259L259.506 2031.5H347V1973.5Z" stroke="black"/>
<path id="Vector 735" d="M347 2034.5H259L259.506 2184.5H347V2034.5Z" stroke="black"/>
<path id="Vector 736" d="M319 2188.5H259L259.345 2232.5H319V2188.5Z" stroke="black"/>
<path id="Vector 737" d="M319 2236.5H259L259.345 2280.5H319V2236.5Z" stroke="black"/>
<path id="Vector 738" d="M514 2192.5H454L454.345 2236.5H514V2192.5Z" stroke="black"/>
<path id="Vector 739" d="M514 2240.5H454L454.345 2280.5H514V2240.5Z" stroke="black"/>
<path id="Vector 725" d="M928 667.5H866L866.356 704.5H928V667.5Z" stroke="black"/>
<path id="Vector 776" d="M264 2691V2553.5H440L505 2691H264Z" stroke="black"/>
<path id="Vector 777" d="M506 2695.5H263V2821.5H412V2901.5H506V2695.5Z" stroke="black"/>
<path id="Vector 778" d="M505 2925.5H377V2977H290V3036.5H312V3246.5H673V3095.5L505 2925.5Z" stroke="black"/>
<path id="Vector 779" d="M1021 3082.5H874V3260.5H923V3287H1021V3082.5Z" stroke="black"/>
<path id="Vector 780" d="M816 2541.5V2467.5H981.5L1077 2563.5L1068 2572.5V2696.5L1030 2699.5V2716.5H985L816 2541.5Z" stroke="black"/>
<path id="Vector 781" d="M1335.5 2267.5H1170V2431H1468.5V2303H1335.5V2267.5Z" stroke="black"/>
<path id="Vector 783" d="M1337 2640.5V2542.5H1472V2624.5H1388V2640.5H1337Z" stroke="black"/>
<path id="Vector 784" d="M1170 2817.57V2710.5H1523V2940.5H1336.24V2817.57H1170Z" stroke="black"/>
<path id="Vector 785" d="M1313 2259.5V2226.5H1801V2315H2145V2617.5H2033V2584.5H2017V2508H1751.5V2535.5H1474.5V2298.5H1342V2259.5H1313Z" stroke="black"/>
<path id="Vector 786" d="M1818 2602.5V2539.5H1986V2594H1934V2644.5H1986V2711H1818V2644.5H1873V2602.5H1818Z" stroke="black"/>
<path id="Vector 787" d="M1811 2669.5H1757V2939.5H2150V2627.5H1991.5V2715.5H1811V2669.5Z" stroke="black"/>
<path id="Vector 788" d="M1248 3101V2948.5H1749.5V3026L1672.5 3031.5L1341 3232V3101H1248Z" stroke="black"/>
<path id="Vector 789" d="M1175 3287.5V3191.5H1332V3244L1262 3289L1175 3287.5Z" stroke="black"/>
<path id="Vector 782" d="M1170 2435.5V2559.5H1329V2537.5H1469V2435.5H1170Z" stroke="black"/>
</g>
<g id="BLDG">
<path id="TIMEZONE_2" d="M1020 1167.5H376V1615.5H1020V1167.5Z" stroke="black"/>
<path id="ESCALATOR1" d="M727 1720.5H585V2053.5H727V1720.5Z" stroke="#FFFF00"/>
<path id="THREE DOTS_2" d="M1332 2563.5H1170V2703.5H1332V2563.5Z" stroke="black"/>
</g>
<g id="BOUNDARIES">
<path id="OUT" d="M249 667.5H534L794.5 0L1390.5 374L1176 919.5V1742.5H1094L1091 2176.5H2113V2304.5H2154V3071.5L2151 3073.5H1650L1242 3328.5L261 3333.5L259 3330.5V3004.5L257 3002.5H208L205 2998.5V2936.5L202 2933.5H99L95 2929.5V2764.5L98 2761.5H186V2644.5L189 2640.5H224V2612.5H96V1693.5H95H0V1569.5H76V1338.5L154 1324.5V1199.5L193 1096.5H249V667.5Z" stroke="black"/>
</g>
<g id="ENTRANCE">
<circle id="Ellipse 3461" cx="698" cy="1594.5" r="10" fill="#040404"/>
<circle id="Ellipse 3462" cx="656" cy="1742.5" r="10" fill="#040404"/>
<circle id="Ellipse 3463" cx="656" cy="2034.5" r="10" fill="#040404"/>
<circle id="Ellipse 3464" cx="1193" cy="2640.5" r="10" fill="#040404"/>
</g>
<g id="PATHS">
<circle id="Ellipse 3465" cx="698" cy="1625.5" r="6" fill="#FF0000"/>
<circle id="Ellipse 3471" cx="714" cy="1641.5" r="6" fill="#FF0000"/>
<circle id="Ellipse 3472" cx="730" cy="1657.5" r="6" fill="#FF0000"/>
<circle id="Ellipse 3473" cx="746" cy="1673.5" r="6" fill="#FF0000"/>
<circle id="Ellipse 3474" cx="762" cy="1689.5" r="6" fill="#FF0000"/>
<circle id="Ellipse 3475" cx="778" cy="1705.5" r="6" fill="#FF0000"/>
<circle id="Ellipse 3476" cx="794" cy="1721.5" r="6" fill="#FF0000"/>
<circle id="Ellipse 3477" cx="810" cy="1737.5" r="6" fill="#FF0000"/>
<circle id="Ellipse 3478" cx="826" cy="1753.5" r="6" fill="#FF0000"/>
<circle id="Ellipse 3479" cx="842" cy="1769.5" r="6" fill="#FF0000"/>
<circle id="Ellipse 3480" cx="851" cy="1788.5" r="6" fill="#FF0000"/>
<circle id="Ellipse 3481" cx="851" cy="1812.5" r="6" fill="#FF0000"/>
<circle id="Ellipse 3482" cx="851" cy="1836.5" r="6" fill="#FF0000"/>
<circle id="Ellipse 3483" cx="851" cy="1860.5" r="6" fill="#FF0000"/>
<circle id="Ellipse 3484" cx="851" cy="1884.5" r="6" fill="#FF0000"/>
<circle id="Ellipse 3485" cx="851" cy="1908.5" r="6" fill="#FF0000"/>
<circle id="Ellipse 3486" cx="851" cy="1932.5" r="6" fill="#FF0000"/>
<circle id="Ellipse 3487" cx="851" cy="1956.5" r="6" fill="#FF0000"/>
<circle id="Ellipse 3488" cx="851" cy="1980.5" r="6" fill="#FF0000"/>
<circle id="Ellipse 3489" cx="851" cy="2004.5" r="6" fill="#FF0000"/>
<circle id="Ellipse 3490" cx="851" cy="2028.5" r="6" fill="#FF0000"/>
<circle id="Ellipse 3491" cx="851" cy="2052.5" r="6" fill="#FF0000"/>
<circle id="Ellipse 3492" cx="851" cy="2076.5" r="6" fill="#FF0000"/>
<circle id="Ellipse 3493" cx="851" cy="2100.5" r="6" fill="#FF0000"/>
<circle id="Ellipse 3494" cx="851" cy="2124.5" r="6" fill="#FF0000"/>
<circle id="Ellipse 3495" cx="851" cy="2148.5" r="6" fill="#FF0000"/>
<circle id="Ellipse 3496" cx="851" cy="2172.5" r="6" fill="#FF0000"/>
<circle id="Ellipse 3497" cx="851" cy="2196.5" r="6" fill="#FF0000"/>
<circle id="Ellipse 3498" cx="851" cy="2220.5" r="6" fill="#FF0000"/>
<circle id="Ellipse 3499" cx="851" cy="2244.5" r="6" fill="#FF0000"/>
<circle id="Ellipse 3500" cx="851" cy="2268.5" r="6" fill="#FF0000"/>
<circle id="Ellipse 3501" cx="851" cy="2292.5" r="6" fill="#FF0000"/>
<circle id="Ellipse 3528" cx="831" cy="2283.5" r="6" fill="#FF0000"/>
<circle id="Ellipse 3529" cx="811" cy="2274.5" r="6" fill="#FF0000"/>
<circle id="Ellipse 3530" cx="791" cy="2265.5" r="6" fill="#FF0000"/>
<circle id="Ellipse 3531" cx="771" cy="2256.5" r="6" fill="#FF0000"/>
<circle id="Ellipse 3532" cx="751" cy="2247.5" r="6" fill="#FF0000"/>
<circle id="Ellipse 3533" cx="731" cy="2238.5" r="6" fill="#FF0000"/>
<circle id="Ellipse 3534" cx="711" cy="2229.5" r="6" fill="#FF0000"/>
<circle id="Ellipse 3535" cx="691" cy="2220.5" r="6" fill="#FF0000"/>
<circle id="Ellipse 3536" cx="671" cy="2211.5" r="6" fill="#FF0000"/>
<circle id="Ellipse 3537" cx="666" cy="2188.5" r="6" fill="#FF0000"/>
<circle id="Ellipse 3538" cx="661" cy="2165.5" r="6" fill="#FF0000"/>
<circle id="Ellipse 3539" cx="656" cy="2142.5" r="6" fill="#FF0000"/>
<circle id="Ellipse 3540" cx="651" cy="2119.5" r="6" fill="#FF0000"/>
<circle id="Ellipse 3541" cx="646" cy="2096.5" r="6" fill="#FF0000"/>
<circle id="Ellipse 3542" cx="641" cy="2073.5" r="6" fill="#FF0000"/>
<circle id="Ellipse 3502" cx="864" cy="2304.5" r="6" fill="#FF0000"/>
<circle id="Ellipse 3503" cx="877" cy="2316.5" r="6" fill="#FF0000"/>
<circle id="Ellipse 3504" cx="890" cy="2328.5" r="6" fill="#FF0000"/>
<circle id="Ellipse 3505" cx="903" cy="2340.5" r="6" fill="#FF0000"/>
<circle id="Ellipse 3506" cx="916" cy="2352.5" r="6" fill="#FF0000"/>
<circle id="Ellipse 3507" cx="929" cy="2364.5" r="6" fill="#FF0000"/>
<circle id="Ellipse 3508" cx="942" cy="2376.5" r="6" fill="#FF0000"/>
<circle id="Ellipse 3509" cx="955" cy="2388.5" r="6" fill="#FF0000"/>
<circle id="Ellipse 3510" cx="968" cy="2400.5" r="6" fill="#FF0000"/>
<circle id="Ellipse 3511" cx="981" cy="2412.5" r="6" fill="#FF0000"/>
<circle id="Ellipse 3512" cx="994" cy="2424.5" r="6" fill="#FF0000"/>
<circle id="Ellipse 3513" cx="1007" cy="2436.5" r="6" fill="#FF0000"/>
<circle id="Ellipse 3514" cx="1020" cy="2448.5" r="6" fill="#FF0000"/>
<circle id="Ellipse 3515" cx="1033" cy="2460.5" r="6" fill="#FF0000"/>
<circle id="Ellipse 3516" cx="1046" cy="2472.5" r="6" fill="#FF0000"/>
<circle id="Ellipse 3517" cx="1059" cy="2484.5" r="6" fill="#FF0000"/>
<circle id="Ellipse 3518" cx="1072" cy="2496.5" r="6" fill="#FF0000"/>
<circle id="Ellipse 3519" cx="1085" cy="2508.5" r="6" fill="#FF0000"/>
<circle id="Ellipse 3520" cx="1098" cy="2520.5" r="6" fill="#FF0000"/>
<circle id="Ellipse 3521" cx="1111" cy="2532.5" r="6" fill="#FF0000"/>
<circle id="Ellipse 3522" cx="1124" cy="2544.5" r="6" fill="#FF0000"/>
<circle id="Ellipse 3523" cx="1137" cy="2556.5" r="6" fill="#FF0000"/>
<circle id="Ellipse 3524" cx="1150" cy="2568.5" r="6" fill="#FF0000"/>
<circle id="Ellipse 3525" cx="1156" cy="2587.5" r="6" fill="#FF0000"/>
<circle id="Ellipse 3526" cx="1156" cy="2611.5" r="6" fill="#FF0000"/>
<circle id="Ellipse 3527" cx="1156" cy="2635.5" r="6" fill="#FF0000"/>
<circle id="Ellipse 3466" cx="688" cy="1641.5" r="6" fill="#FF0000"/>
<circle id="Ellipse 3467" cx="678" cy="1657.5" r="6" fill="#FF0000"/>
<circle id="Ellipse 3468" cx="668" cy="1673.5" r="6" fill="#FF0000"/>
<circle id="Ellipse 3469" cx="658" cy="1689.5" r="6" fill="#FF0000"/>
<circle id="Ellipse 3470" cx="648" cy="1705.5" r="6" fill="#FF0000"/>
</g>
</g>
</svg>
