<svg width="9168" height="5813" viewBox="0 0 9168 5813" fill="none"
    xmlns="http://www.w3.org/2000/svg">
    <g id="Facility">
        <path
            d="M40 42C40 40.8955 40.8954 40 42 40H9126C9127.1 40 9128 40.8954 9128 42V5771C9128 5772.1 9127.1 5773 9126 5773H41.9999C40.8953 5773 40 5772.1 40 5771V42Z"
            fill="white" />
        <path
            d="M42 40V41H9126V40V39H42V40ZM9128 42H9127V5771H9128H9129V42H9128ZM9126 5773V5772H41.9999V5773V5774H9126V5773ZM40 5771H41V42H40H39V5771H40ZM41.9999 5773V5772C41.4477 5772 41 5771.55 41 5771H40H39C39 5772.66 40.343 5774 41.9999 5774V5773ZM9128 5771H9127C9127 5771.55 9126.55 5772 9126 5772V5773V5774C9127.66 5774 9129 5772.66 9129 5771H9128ZM9126 40V41C9126.55 41 9127 41.4477 9127 42H9128H9129C9129 40.3432 9127.66 39 9126 39V40ZM42 40V39C40.3431 39 39 40.3432 39 42H40H41C41 41.4477 41.4477 41 42 41V40Z"
            fill="white" fill-opacity="0.1" />
        <g id="Vector 31">
            <path d="M6345 1149L6439.5 1058L6693.5 1316L6600.5 1407L6345 1149Z" stroke="black"
                stroke-width="5" />
            <path d="M6653 1455.5L6742.5 1364L6988.5 1612.5L6895.5 1705.5L6653 1455.5Z"
                stroke="black" stroke-width="5" />
            <path d="M7018.5 1834.5V1685L7227.5 1903H7082.5L7018.5 1834.5Z" stroke="black"
                stroke-width="5" />
            <path d="M7238.5 1888L7028 1679.5L7047 1660.5L7258 1868.5L7238.5 1888Z" stroke="black"
                stroke-width="5" />
            <path d="M7263.5 1863.5L7052 1655.5L7068.5 1639L7280 1846L7263.5 1863.5Z" stroke="black"
                stroke-width="5" />
            <path d="M7289.5 1838L7074 1631L7227.5 1626.5L7295 1692L7289.5 1838Z" stroke="black"
                stroke-width="5" />
        </g>
        <path id="UNICA HIJA"
            d="M2433.04 299.581L2436.12 299.58L2436.13 316.434C2436.13 318.174 2435.72 319.727 2434.9 321.095C2434.09 322.454 2432.94 323.527 2431.46 324.315C2429.97 325.094 2428.23 325.484 2426.24 325.485C2424.24 325.486 2422.5 325.097 2421.02 324.319C2419.53 323.532 2418.38 322.459 2417.56 321.101C2416.75 319.734 2416.34 318.18 2416.34 316.44L2416.33 299.586L2419.42 299.585L2419.42 316.19C2419.42 317.433 2419.7 318.539 2420.24 319.509C2420.79 320.47 2421.57 321.228 2422.58 321.783C2423.6 322.329 2424.82 322.602 2426.24 322.602C2427.65 322.601 2428.87 322.327 2429.89 321.78C2430.91 321.225 2431.69 320.466 2432.23 319.505C2432.77 318.535 2433.05 317.429 2433.04 316.186L2433.04 299.581ZM2462.46 299.571L2462.47 325.026L2459.49 325.027L2445.61 305.046L2445.36 305.046L2445.37 325.031L2442.29 325.032L2442.28 299.578L2445.26 299.577L2459.19 319.608L2459.44 319.608L2459.43 299.572L2462.46 299.571ZM2471.71 299.568L2471.72 325.023L2468.64 325.024L2468.63 299.569L2471.71 299.568ZM2498.38 307.514L2495.3 307.515C2495.11 306.629 2494.79 305.85 2494.34 305.179C2493.89 304.508 2493.34 303.944 2492.7 303.489C2492.06 303.025 2491.35 302.677 2490.57 302.446C2489.79 302.214 2488.98 302.098 2488.13 302.098C2486.59 302.099 2485.2 302.489 2483.95 303.268C2482.7 304.047 2481.71 305.195 2480.98 306.712C2480.25 308.228 2479.88 310.089 2479.89 312.293C2479.89 314.497 2480.25 316.357 2480.98 317.873C2481.72 319.389 2482.71 320.536 2483.95 321.315C2485.2 322.093 2486.6 322.482 2488.14 322.482C2488.99 322.482 2489.8 322.365 2490.58 322.133C2491.36 321.901 2492.06 321.557 2492.7 321.101C2493.35 320.637 2493.9 320.069 2494.34 319.397C2494.8 318.718 2495.12 317.939 2495.3 317.061L2498.38 317.059C2498.15 318.36 2497.73 319.525 2497.11 320.552C2496.5 321.58 2495.74 322.455 2494.83 323.176C2493.92 323.889 2492.89 324.432 2491.76 324.805C2490.63 325.178 2489.43 325.365 2488.14 325.365C2485.97 325.366 2484.04 324.836 2482.35 323.776C2480.66 322.716 2479.33 321.209 2478.36 319.254C2477.39 317.298 2476.9 314.978 2476.9 312.294C2476.9 309.609 2477.39 307.289 2478.35 305.333C2479.32 303.377 2480.65 301.869 2482.34 300.808C2484.03 299.746 2485.96 299.216 2488.13 299.215C2489.42 299.214 2490.62 299.4 2491.75 299.773C2492.89 300.145 2493.91 300.692 2494.82 301.413C2495.73 302.125 2496.5 302.995 2497.11 304.022C2497.72 305.041 2498.15 306.205 2498.38 307.514ZM2504.41 325.012L2501.18 325.013L2510.52 299.556L2513.7 299.554L2523.05 325.006L2519.82 325.007L2512.21 303.582L2512.01 303.582L2504.41 325.012ZM2505.6 315.068L2518.62 315.064L2518.63 317.799L2505.6 317.803L2505.6 315.068ZM2432.78 367.036L2432.77 341.581L2435.85 341.58L2435.86 352.915L2449.43 352.911L2449.43 341.576L2452.51 341.575L2452.52 367.029L2449.44 367.03L2449.43 355.645L2435.86 355.65L2435.86 367.035L2432.78 367.036ZM2461.76 341.572L2461.77 367.026L2458.69 367.027L2458.68 341.573L2461.76 341.572ZM2477.69 341.566L2480.77 341.565L2480.78 359.761C2480.78 361.385 2480.48 362.765 2479.88 363.9C2479.29 365.036 2478.45 365.898 2477.36 366.486C2476.27 367.075 2474.99 367.37 2473.52 367.37C2472.13 367.371 2470.89 367.118 2469.8 366.613C2468.72 366.1 2467.86 365.371 2467.24 364.427C2466.62 363.482 2466.31 362.36 2466.31 361.059L2469.34 361.058C2469.34 361.779 2469.52 362.408 2469.88 362.947C2470.24 363.477 2470.74 363.891 2471.37 364.189C2472 364.487 2472.71 364.636 2473.52 364.636C2474.41 364.636 2475.16 364.449 2475.78 364.076C2476.4 363.703 2476.87 363.156 2477.2 362.435C2477.53 361.705 2477.69 360.815 2477.69 359.762L2477.69 341.566ZM2488 367.017L2484.77 367.019L2494.11 341.561L2497.29 341.56L2506.64 367.011L2503.41 367.012L2495.8 345.587L2495.6 345.587L2488 367.017ZM2489.19 357.074L2502.21 357.07L2502.22 359.804L2489.19 359.808L2489.19 357.074Z"
            fill="black" />
        <g id="DIVISIONS">
            <path id="2F Based"
                d="M306.501 731.446V211H1686.26V243.933H1944.22V211L3772.9 216.988L3951.37 390.137H4657.75V216.988H5826.05C6146.33 246.428 6789.98 305.309 6802.38 305.309L9001.5 2515.83V3074.7H4963.2V3028.79H4075.85V5642H2747.58V5301.69H2448.63V5247.3H2187.18V5301.69H1855.73V5370.55H1314.83L521.464 4579.15V1838.7H553.958V731.446H306.501Z"
                stroke="#A77777" stroke-width="10" />
        </g>
        <g id="Group 1">
            <g id="Vector 21">
                <path d="M2970 3890V3455.5H3115V3890H2970Z" stroke="black" stroke-width="5" />
                <path d="M3130 3890V3455.5H3275V3890H3130Z" stroke="black" stroke-width="5" />
                <path d="M3300.5 3890V3455.5H3445.5V3890H3300.5Z" stroke="black" stroke-width="5" />
            </g>
            <g id="Vector 29">
                <path
                    d="M6743.5 2105.5L6970.5 1888.5L7009 1928.5V2129.5H6881L6825.5 2186.5L6743.5 2105.5Z"
                    stroke="black" stroke-width="5" />
                <path
                    d="M6570 2275.5L6706.5 2141L6745.5 2183L6774 2156L6817.5 2196.5L6650.5 2359L6570 2275.5Z"
                    stroke="black" stroke-width="5" />
                <path d="M6658.5 2366L6822 2203L6916 2296L6743.5 2452L6658.5 2366Z" stroke="black"
                    stroke-width="5" />
                <path d="M6748 2458.5L6919.5 2304H7010L7012.5 2509.5L6748 2507V2458.5Z"
                    stroke="black" stroke-width="5" />
                <path d="M6825.5 2196.5L6884 2136.5H7010V2293H6922.5L6825.5 2196.5Z" stroke="black"
                    stroke-width="5" />
                <path d="M6550 1892.5L6602.5 1841.5L6654 1896L6602.5 1946.5L6550 1892.5Z"
                    stroke="black" stroke-width="5" />
                <path d="M3340 1161.5V1094.5H3414.5V1161.5H3340Z" stroke="black" stroke-width="5" />
                <path d="M1830 1013.5V951.5H1896V1013.5H1830Z" stroke="black" stroke-width="5" />
                <path d="M597.5 1772V1694H677V1772H597.5Z" stroke="black" stroke-width="5" />
                <path d="M1891.5 3408V3342H1963V3408H1891.5Z" stroke="black" stroke-width="5" />
                <path
                    d="M2487 4301V4272.5H2656V4245.5H2732V4161.5H2798V4265.5H2917.5V4022H2955V4213.5H2973V4875.5H2929V4408.5H2784V4301H2487Z"
                    stroke="black" stroke-width="5" />
                <path d="M3798.5 4053V3982.5H3867.5V4053H3798.5Z" stroke="black" stroke-width="5" />
                <path d="M3640.5 4531.5V4461.5H3702V4531.5H3640.5Z" stroke="black" stroke-width="5" />
                <path d="M1894.5 4539.5V4459H1968V4539.5H1894.5Z" stroke="black" stroke-width="5" />
                <path d="M2855 351.5V298H2910V351.5H2855Z" stroke="black" stroke-width="5" />
                <path d="M4781 1451.5V1399.5H4837.5V1451.5H4781Z" stroke="black" stroke-width="5" />
                <path d="M4917 2740.5V2694.5H4964V2740.5H4917Z" stroke="black" stroke-width="5" />
                <path d="M3867 1347.5H3777.5V1527.5H3993V1380.5H3867V1347.5Z" stroke="black"
                    stroke-width="5" />
                <path d="M3896 1539H3777.5V1699H3896V1539Z" stroke="black" stroke-width="5" />
                <path d="M4272.5 1405V1373H4459V1405H4272.5Z" stroke="black" stroke-width="5" />
                <path d="M6907 1111.5L6957.5 1060.5L6998.5 1103.5L6947.5 1153.5L6907 1111.5Z"
                    stroke="black" stroke-width="5" />
            </g>
            <path id="Vector 27"
                d="M6283.5 1647L6360.5 1572L6396 1608L6421.5 1586.5L6453 1622L6482 1594.5L6512.5 1625.5L6385 1748.5L6283.5 1647Z"
                stroke="black" stroke-width="5" />
            <g id="Vector 28">
                <path d="M6115 1822.5L6281 1662L6383.5 1763.5L6217 1926.5L6115 1822.5Z"
                    stroke="black" stroke-width="5" />
                <path
                    d="M6225.5 1934L6390 1770.5L6614.5 1999L6559 2052L6606 2097L6625 2079L6664 2114.5L6674 2103L6699.5 2130L6559 2268.5L6225.5 1934Z"
                    stroke="black" stroke-width="5" />
                <path d="M6394.5 1763.5L6625 1537L6731.5 1646L6504 1870L6394.5 1763.5Z"
                    stroke="black" stroke-width="5" />
                <path d="M6543 1540L6586 1500.5L6620.5 1532L6576.5 1572.5L6543 1540Z" stroke="black"
                    stroke-width="5" />
                <path d="M6591 1799.5L6738.5 1653.5L6849 1763.5L6699 1912L6591 1799.5Z"
                    stroke="black" stroke-width="5" />
                <path d="M6510.5 1876.5L6585.5 1804.5L6692.5 1917.5L6621 1991.5L6510.5 1876.5Z"
                    stroke="black" stroke-width="5" />
                <path
                    d="M6569 2052L6853.5 1767.5L6881.5 1796.5L6671 2003.5L6695 2027.5L6671 2052L6766.5 2149L6749 2168L6674 2091.5L6664 2103L6625 2067.5L6606 2087L6569 2052Z"
                    stroke="black" stroke-width="5" />
                <path
                    d="M6683 2003.5L6887.5 1802L6959.5 1876.5L6729.5 2097L6683 2052L6706.5 2027.5L6683 2003.5Z"
                    stroke="black" stroke-width="5" />
            </g>
            <g id="Vector 25">
                <path d="M4982.5 3015V2893.5H5339V2992.5H5403V3060.5H4997V3015H4982.5Z"
                    stroke="black" stroke-width="5" />
                <path d="M5348.5 2981.5V2828.5H5458V2981.5H5348.5Z" stroke="black" stroke-width="5" />
                <path d="M5465 2992.5V2748H5781.5V3060.5H5409V2992.5H5465Z" stroke="black"
                    stroke-width="5" />
                <path d="M5947.5 2748H5790.5V3060.5H5947.5V2748Z" stroke="black" stroke-width="5" />
                <path d="M5955 3060.5V2748H6108V3060.5H5955Z" stroke="black" stroke-width="5" />
                <path d="M6115.5 3060.5V2748H6269.5V3060.5H6115.5Z" stroke="black" stroke-width="5" />
                <path d="M6278.5 3060.5V2748H6539V2825.5H6425V3028H6511.5V3060.5H6278.5Z"
                    stroke="black" stroke-width="5" />
                <path d="M6547 2832V2786H6590.5V3017.5H6432.5V2832H6547Z" stroke="black"
                    stroke-width="5" />
                <path d="M6597.5 3028V2748H6755V3060.5H6519.5V3028H6597.5Z" stroke="black"
                    stroke-width="5" />
                <path d="M6748 2744V2739.5H6910V3060.5H6761.5V2744H6748Z" stroke="black"
                    stroke-width="5" />
                <path d="M6918.5 3060.5V2739.5H7071V3060.5H6918.5Z" stroke="black" stroke-width="5" />
                <path d="M7078.5 3060.5V2739.5H7232.5V3060.5H7078.5Z" stroke="black"
                    stroke-width="5" />
                <path d="M7240 3060.5V2739.5H7394.5V3060.5H7240Z" stroke="black" stroke-width="5" />
                <path d="M7402.5 3060.5V2739.5H7549V3060.5H7402.5Z" stroke="black" stroke-width="5" />
                <path d="M6732 2728.5V2514H6761.5V2728.5H6732Z" stroke="black" stroke-width="5" />
                <path d="M6816.5 2651V2586.5H6923.5V2651H6816.5Z" stroke="black" stroke-width="5" />
                <path d="M7071 2651V2586.5H7176.5V2651H7071Z" stroke="black" stroke-width="5" />
                <path d="M7260 2651V2586.5H7366V2651H7260Z" stroke="black" stroke-width="5" />
                <path d="M7366 2721.5V2683H7421.5C7424.7 2683 7422.83 2708.67 7421.5 2721.5H7366Z"
                    stroke="black" stroke-width="5" />
                <path d="M7478.5 2687V2514H7510V2687H7478.5Z" stroke="black" stroke-width="5" />
                <path
                    d="M8709 2368.5V2264.5L8983 2534V3060.5L7574 3069.5V2687H7521.5V2514H7574V2447.5H8367L8517 2368.5H8709Z"
                    stroke="black" stroke-width="5" />
                <path d="M7079 2489.5V2000H7214.5V2489.5H7079Z" stroke="black" stroke-width="5" />
                <path d="M7301.5 2358.5V2235H7492.5V2358.5H7301.5Z" stroke="black" stroke-width="5" />
                <path d="M7492.5 2373H7301.5V2502H7478.5V2489.5H7492.5V2373Z" stroke="black"
                    stroke-width="5" />
                <path d="M7502 2489.5V2235H7562V2417H7548V2489.5H7502Z" stroke="black"
                    stroke-width="5" />
                <path
                    d="M7598.5 2235H7574V2417H8359.5L8517 2336.5V2235H8665.5V2209.5L8190 1736.5L7821.5 2109L7774.5 2058.5L7598.5 2235Z"
                    stroke="black" stroke-width="5" />
                <path d="M8523.5 2343V2243H8678.5V2343H8523.5Z" stroke="black" stroke-width="5" />
                <path
                    d="M7301.5 2179.5V1955L7839 1418L8099.5 1679.5L7991 1782.5L8059.5 1854L7937.5 1974.5L7864.5 1898.5L7581.5 2179.5H7301.5Z"
                    stroke="black" stroke-width="5" />
                <path
                    d="M7354 2228.5V2186.5V2184H7581.5L7864.5 1903.5L7941 1983L7821.5 2100L7774.5 2050.5L7598.5 2228.5H7354Z"
                    stroke="black" stroke-width="5" />
            </g>
            <g id="Vector 26">
                <path
                    d="M7844.5 1413.5L7862 1396L8189.5 1724.5L8067 1847L8004 1783.5L8112.5 1679.5L7844.5 1413.5Z"
                    stroke="black" stroke-width="5" />
                <path d="M6077 1384.5L6276.5 1183L6504 1418.5L6301 1614L6077 1384.5Z" stroke="black"
                    stroke-width="5" />
                <path
                    d="M6367.5 1567.5L6509.5 1424L6581 1496.5L6534.5 1540L6567 1572.5L6520.5 1619.5L6483 1580L6455 1607.5L6422.5 1572.5L6398 1595.5L6367.5 1567.5Z"
                    stroke="black" stroke-width="5" />
            </g>
            <path id="Vector 20"
                d="M2183.5 5231.5V5044H1849V5288H2157.5V5235H2183.5M578 871.5H817.5V1789.5H758.5V1686.5H724.5V1670H704.5V1645.5H578V871.5ZM578 1655V1853H686V1789.5H749V1692H716.5V1677.5H699.5V1655H578ZM864 1453.5V1853H1029.5V1453.5H864ZM1037.5 1453.5V1853H1192.5V1453.5H1037.5ZM1200.5 1453.5V1853H1670.5V1453.5H1200.5ZM1679.5 1453.5V1853H1848.5L1860.5 1841.5V1453.5H1679.5ZM1867.5 1453.5V1683H2021.5V1453.5H1867.5ZM2030 1453.5V1683H2178V1453.5H2030ZM1867.5 1692V1841.5H2178V1692H1867.5ZM1864 1845L1848.5 1860.5V2005.5H2178V1845H1864ZM1848.5 2012V2166H1983.5V2276.5H2178V2012H1848.5ZM1848.5 2171V2328.5H2002.5V2320H2118V2280.5H1979.5V2171H1848.5ZM1874.5 2221.5V2292.5H1952.5V2221.5H1874.5ZM1848.5 2333.5V2558.5H2118L2178 2494.5V2333.5H1848.5ZM586.5 1869V1886.5H558V4577.5L1323 5339H1814V5279.5H1830.5V1869H586.5ZM1854.5 4759.5H2179.5V4570H2004.5V4580H1854.5V4759.5ZM1854.5 4423.5H2004.5V4536H2120.5V4564.5H1996V4574H1854.5V4423.5ZM2011 4423.5H2179.5V4522H2011V4423.5ZM1854.5 4098.5H2179.5V4414.5H1854.5V4098.5ZM1854.5 3935V4091.5H2179.5V3935H1854.5ZM1854.5 3853V3929H2179.5V3853H1854.5ZM1854.5 3574V3847.5H2099V3615.5H2065.5V3644.5H2022.5V3605H1979.5V3574H1854.5ZM2065.5 3559V3608.5H2113.5V3559H2065.5ZM2120 3559V3615.5H2105.5V3770.5H2179.5V3559H2120ZM2105.5 3779V3847.5H2179.5V3779H2105.5ZM1854.5 3459.5V3509H1933V3459.5H1854.5ZM1854.5 3516.5V3563H1933V3516.5H1854.5ZM1854.5 3297V3449.5H2052.5V3491.5H2105.5V3410H1999.5V3297H1854.5ZM1999.5 3459.5V3479H2028.5V3459.5H1999.5ZM1854.5 3134V3289.5H2003.5V3402.5H2109.5V3491.5H2179.5V3134H1854.5ZM1854.5 2905.5V3127H2179.5V2965L2109.5 2905.5H1854.5Z"
                stroke="black" stroke-width="5" />
            <g id="Vector 13">
                <path d="M3391.5 561.5V510.5H3506.5V561.5H3391.5Z" stroke="black" stroke-width="5" />
                <path d="M3622 569V510.5H3710V569H3622Z" stroke="black" stroke-width="5" />
                <path d="M3305.5 718V662H3607V718H3305.5Z" stroke="black" stroke-width="5" />
                <path d="M3607 781.5H3309V796H3607V781.5Z" stroke="black" stroke-width="5" />
                <path d="M3574.5 723.5H3337.5V746H3574.5V723.5Z" stroke="black" stroke-width="5" />
                <path d="M3337.5 777V753.5H3574.5V777H3337.5Z" stroke="black" stroke-width="5" />
            </g>
            <g id="Vector 7">
                <path d="M1678.5 851H1619V945.5H1678.5V851Z" stroke="black" stroke-width="5" />
                <path d="M1691.5 945.5V851H1772V945.5H1691.5Z" stroke="black" stroke-width="5" />
                <path d="M1785.5 923V851H1872V923H1785.5Z" stroke="black" stroke-width="5" />
                <path d="M1883.5 888V851H1967V888H1883.5Z" stroke="black" stroke-width="5" />
                <path d="M1883.5 928V894.5H1967V969V1045H1781.5V928H1883.5Z" stroke="black"
                    stroke-width="5" />
                <path d="M1772 955.5H1619V1045H1772V955.5Z" stroke="black" stroke-width="5" />
                <path d="M1709.5 1058H1619V1142H1709.5V1058Z" stroke="black" stroke-width="5" />
                <path d="M1709.5 1149.5H1619V1192H1709.5V1149.5Z" stroke="black" stroke-width="5" />
                <path d="M1676.5 1200.5H1619V1306H1676.5V1200.5Z" stroke="black" stroke-width="5" />
                <path
                    d="M1714.5 1192V1058H1934V1091H1967V1142H1922V1171.5H1967V1226H1759.5V1192H1714.5Z"
                    stroke="black" stroke-width="5" />
                <path d="M1691 1306V1200.5H1756V1306H1691Z" stroke="black" stroke-width="5" />
                <path d="M1766.5 1306V1230.5H1864.5V1306H1766.5Z" stroke="black" stroke-width="5" />
                <path d="M1875.5 1306V1230.5H1967V1306H1875.5Z" stroke="black" stroke-width="5" />
                <path d="M450 539V707.5H577V868.5H770V829H617.5V668H559V539H450Z" stroke="black"
                    stroke-width="5" />
                <path d="M2008 1081.5V1031H2202.5V1138.5H2038V1081.5H2008Z" stroke="black"
                    stroke-width="5" />
            </g>
            <g id="Vector 9">
                <path d="M2035.5 1112.5H2017.5V1138H2035.5V1112.5Z" stroke="black" stroke-width="5" />
                <path d="M2009 1225.5V1143.5H2202.5V1225.5H2009Z" stroke="black" stroke-width="5" />
                <path d="M2009 1306V1232H2202.5V1306H2009Z" stroke="black" stroke-width="5" />
                <path d="M2206 1306V1045.5H2275V1306H2206Z" stroke="black" stroke-width="5" />
                <path d="M2865.5 858V726.5H2327V1366.5H2356.5L2865.5 858Z" stroke="black"
                    stroke-width="5" />
                <path d="M2337.5 1507L2617 1232L2712.5 1326.5L2436 1606L2337.5 1507Z" stroke="black"
                    stroke-width="5" />
                <path d="M2665.5 1184L2940 904L3038.5 999L2755 1278.5L2665.5 1184Z" stroke="black"
                    stroke-width="5" />
            </g>
            <g id="Vector 10">
                <path d="M2350.5 1576.5L2314 1540L2337.5 1518.5L2373.5 1554.5L2350.5 1576.5Z"
                    stroke="black" stroke-width="5" />
                <path d="M2358 1583.5L2379.5 1562.5L2406.5 1589L2385.5 1611.5L2358 1583.5Z"
                    stroke="black" stroke-width="5" />
            </g>
            <path id="Vector 12" d="M3274 1203V1262H3569V1203H3277.47" stroke="black"
                stroke-width="5" />
            <g id="Vector 11">
                <path d="M3043.5 1118L3078.5 1082L3137 1139L3101 1174.5L3079.63 1153.5L3043.5 1118Z"
                    stroke="black" stroke-width="5" />
                <path
                    d="M3067.13 1223.6L3102.13 1187.6L3160 1244L3124.63 1280.1L3095.5 1251L3067.13 1223.6Z"
                    stroke="black" stroke-width="5" />
                <path
                    d="M3108.87 1180.5L3143.87 1144.5L3201.5 1200.5L3166.37 1237L3139 1210L3108.87 1180.5Z"
                    stroke="black" stroke-width="5" />
                <path
                    d="M3108.87 1180.5L3143.87 1144.5L3201.5 1200.5L3166.37 1237L3139 1210L3108.87 1180.5Z"
                    stroke="black" stroke-width="5" />
                <path
                    d="M3130.24 1284L3165.24 1248L3214.5 1297.5L3179.5 1332L3154 1307L3130.24 1284Z"
                    stroke="black" stroke-width="5" />
                <path
                    d="M3171.37 1242L3206.37 1206L3257.5 1255.5L3221.5 1291L3197 1267L3171.37 1242Z"
                    stroke="black" stroke-width="5" />
                <path d="M3001.5 854.5L3026.5 829.5L3081 882.5L3055.5 908L3001.5 854.5Z"
                    stroke="black" stroke-width="5" />
            </g>
            <path id="Vector 1"
                d="M328 706.326V234H1674.17V255.401H1798.37V306.168H1689.19V563.483H1912.05V642.121H1143.81V1097.53H920.955V823.287H623.476V661.532H563.379V533.621H443.686V706.326H328Z"
                stroke="black" stroke-width="5" />
            <g id="Vector 2">
                <path d="M1206 1365V729H1556.5V1365H1206Z" stroke="black" stroke-width="5" />
                <path d="M1624.5 798.5V729H1743.5V798.5H1624.5Z" stroke="black" stroke-width="5" />
                <path d="M1788.5 798.5V729H1959V798.5H1788.5Z" stroke="black" stroke-width="5" />
                <path d="M2010 798.5V729H2125V798.5H2010Z" stroke="black" stroke-width="5" />
                <path d="M2164 798.5V729H2279V798.5H2164Z" stroke="black" stroke-width="5" />
                <path d="M1797.5 318H1689.5V495.5H1727.5V473H1797.5V318Z" stroke="black"
                    stroke-width="5" />
            </g>
            <g id="Vector 4">
                <path d="M1802.5 313V254H1953.5V235H2054.5V418H1891V313H1802.5Z" stroke="black"
                    stroke-width="5" />
                <path d="M2060.5 418V235H2159V418H2060.5Z" stroke="black" stroke-width="5" />
                <path d="M2164.5 418V235H2266V418H2164.5Z" stroke="black" stroke-width="5" />
                <path d="M2273.5 418V235H2370V418H2273.5Z" stroke="black" stroke-width="5" />
                <path d="M2377.5 418V235H2558.5V418H2377.5Z" stroke="black" stroke-width="5" />
                <path d="M2568 418V235H2641.5V418H2568Z" stroke="black" stroke-width="5" />
                <path d="M2649 418V235H2878.5V260.5H2797V347.5H2732.5V418H2649Z" stroke="black"
                    stroke-width="5" />
                <path d="M2884 260.5V235H3136V418H2964V260.5H2884Z" stroke="black" stroke-width="5" />
            </g>
            <g id="Vector 3">
                <path d="M1864.5 319.5H1806V368.5H1864.5V319.5Z" stroke="black" stroke-width="5" />
                <path d="M1864.5 375.5H1806V427.5H1864.5V375.5Z" stroke="black" stroke-width="5" />
                <path d="M1806 480.5V433.5H1864.5V480.5H1806Z" stroke="black" stroke-width="5" />
                <path d="M1806 532.5V487.5H1864.5V532.5H1806Z" stroke="black" stroke-width="5" />
            </g>
            <g id="Vector 5">
                <path d="M3231 235.5H3142.5V419H3231V235.5Z" stroke="black" stroke-width="5" />
                <path d="M3334.5 235.5H3238V419H3334.5V235.5Z" stroke="black" stroke-width="5" />
                <path d="M3342 419V235.5H3443.5V419H3342Z" stroke="black" stroke-width="5" />
                <path d="M3451 419V235.5H3525.5V419H3451Z" stroke="black" stroke-width="5" />
                <path d="M3533 419V235.5H3765L3802 270L3765 313H3614.5V419H3533Z" stroke="black"
                    stroke-width="5" />
                <path d="M2801 380V264H2960.5V380H2801Z" stroke="black" stroke-width="5" />
                <path d="M2737.5 470V355H2796V383.5H2801V554.5H2786.5V470H2737.5Z" stroke="black"
                    stroke-width="5" />
                <path
                    d="M3765 318.5L3805 273L3927.5 385H3879V400.5H3754.5V487H3711V496.5H3614.5V542H3592.5V474H3619.5V318.5H3765Z"
                    stroke="black" stroke-width="5" />
                <path d="M3760.5 575V407H3879L3915.5 449.5V518H3893V575H3760.5Z" stroke="black"
                    stroke-width="5" />
                <path
                    d="M3885 391.5H3940L3957.5 407H4070.5V575H3899V522.5H3921.5V449.5L3885 407V391.5Z"
                    stroke="black" stroke-width="5" />
                <path d="M4217.5 407H4078V575H4217.5V407Z" stroke="black" stroke-width="5" />
                <path d="M4312.5 407H4223.5V575H4312.5V407Z" stroke="black" stroke-width="5" />
                <path d="M4424 407H4319.5V575H4424V407Z" stroke="black" stroke-width="5" />
                <path d="M4506 407H4429.5V575H4506V407Z" stroke="black" stroke-width="5" />
                <path d="M4516.5 575V407H4673V233.5H4901.5V259.5H4824V575H4516.5Z" stroke="black"
                    stroke-width="5" />
            </g>
            <g id="Vector 6">
                <path d="M4827.5 268.5H4980.5V440H4867V528.5H4827.5V268.5Z" stroke="black"
                    stroke-width="5" />
                <path d="M5308 578.5H4986.5V260H4907V234.5H5308V578.5Z" stroke="black"
                    stroke-width="5" />
                <path d="M5313.5 578.5V234.5H5469V578.5H5313.5Z" stroke="black" stroke-width="5" />
                <path d="M5475 578.5V234.5H5706V262.5H5633V382H5726.5V578.5H5475Z" stroke="black"
                    stroke-width="5" />
                <path
                    d="M5710 262.5V234.5H5824.5L6112 262.5V548.5L6079.5 578.5H5773.5V389.5H5876V262.5H5710Z"
                    stroke="black" stroke-width="5" />
                <path
                    d="M6585 302.5L6119.5 262.5V560L6089 587L6335.5 828.5L6534 632.5V404H6585V302.5Z"
                    stroke="black" stroke-width="5" />
                <path
                    d="M6597 404V302.5L6789 321L7084.5 616.5L6597 1103L6375.5 866.5L6534 701.5H6700.5V568H6738.5V404H6597Z"
                    stroke="black" stroke-width="5" />
                <path d="M4871.5 578.5V443.5H4980.5V578.5H4871.5Z" stroke="black" stroke-width="5" />
                <path d="M5637 379V266H5871.5V386H5769V526H5730V379H5637Z" stroke="black"
                    stroke-width="5" />
                <path d="M6540 560V412H6732.5V560H6540Z" stroke="black" stroke-width="5" />
                <path d="M6694.5 568H6540V637L6382.5 794L6413.5 821L6534 696H6694.5V568Z"
                    stroke="black" stroke-width="5" />
                <path
                    d="M7093 625L6609 1112.5L6715 1219L6936.5 1003L7035 1103L7058 1080L7009.5 1027L7093 941.5L7207 1057L7252 1011L7295.5 1050.5L7370 973L7390 987.5L7419 954.5L7093 625Z"
                    stroke="black" stroke-width="5" />
                <path d="M6934 1014L6858 1088L6977 1205L7049.5 1131.5L6934 1014Z" stroke="black"
                    stroke-width="5" />
                <path d="M6722.5 1226L6855 1095L6907.5 1148L6774.5 1277L6722.5 1226Z" stroke="black"
                    stroke-width="5" />
                <path d="M6781 1284L6912.5 1155L6968.5 1212L6838.5 1342L6781 1284Z" stroke="black"
                    stroke-width="5" />
            </g>
            <g id="Vector 8">
                <path d="M2097 942.5H2012.5H2007V852H2097V942.5Z" stroke="black" stroke-width="5" />
                <path d="M2111 942.5V852H2274V942.5H2111Z" stroke="black" stroke-width="5" />
                <path d="M1938.5 1087.5V1059.5H1965V1087.5H1938.5Z" stroke="black" stroke-width="5" />
                <path d="M2007 1002V949H2046.5V1002H2007Z" stroke="black" stroke-width="5" />
                <path d="M2052 1002V949H2157.5V994.5H2190V1016H2204.5V1026.5H2091.5V1002H2052Z"
                    stroke="black" stroke-width="5" />
                <path d="M2166 986V949H2274V1037.5H2210.5V1011.5H2194V986H2166Z" stroke="black"
                    stroke-width="5" />
            </g>
            <g id="Vector 14">
                <path d="M3679 793.5V660.5H3985V793.5H3679Z" stroke="black" stroke-width="5" />
                <path d="M3990 702V669H4020V702H3990Z" stroke="black" stroke-width="5" />
                <path d="M3990 781V746.5H4020V781H3990Z" stroke="black" stroke-width="5" />
                <path d="M4119.5 765.5V678H4189V765.5H4119.5Z" stroke="black" stroke-width="5" />
            </g>
            <path id="Vector 15" d="M4195 765.5V678H4264.5V765.5H4195Z" stroke="black"
                stroke-width="5" />
            <path id="Vector 16" d="M4541 765.5V678H4610.5V765.5H4541Z" stroke="black"
                stroke-width="5" />
            <g id="Vector 19">
                <path d="M5352.5 984V869H5406V984H5352.5Z" stroke="black" stroke-width="5" />
                <path d="M5447.5 984V869H5501V984H5447.5Z" stroke="black" stroke-width="5" />
                <path d="M5506 984V869H5559.5V984H5506Z" stroke="black" stroke-width="5" />
                <path d="M5628.5 984V869H5682V984H5628.5Z" stroke="black" stroke-width="5" />
                <path d="M5686 984V869H5739.5V984H5686Z" stroke="black" stroke-width="5" />
                <path d="M5773.5 984V869H5827V984H5773.5Z" stroke="black" stroke-width="5" />
                <path d="M5831.5 984V869H5885V984H5831.5Z" stroke="black" stroke-width="5" />
            </g>
            <path id="Vector 18" d="M4465.5 765.5V678H4535V765.5H4465.5Z" stroke="black"
                stroke-width="5" />
            <path id="Vector 17" d="M4541 765.5V678H4610.5V765.5H4541Z" stroke="black"
                stroke-width="5" />
            <g id="Vector 22">
                <path d="M1719 423V368.5H1773.5V423H1719Z" stroke="black" stroke-width="5" />
                <path d="M463.5 631V574.5H539.5V631H463.5Z" stroke="black" stroke-width="5" />
                <path d="M3797 517V442.5H3867.5V517H3797Z" stroke="black" stroke-width="5" />
                <path
                    d="M2900 1662.5L3112.5 1452.5L3183.5 1524H3282.5V1677H3119.5V1759H2900V1662.5Z"
                    stroke="black" stroke-width="5" />
                <path d="M3183.5 1515.5L3116.5 1448L3217.5 1347.5H3282.5V1515.5H3183.5Z"
                    stroke="black" stroke-width="5" />
                <path d="M3292 1677V1347.5H3603.5V1731L3457.5 1767.5V1677H3292Z" stroke="black"
                    stroke-width="5" />
                <path d="M3767 1347.5H3615.5V1731L3767 1691V1347.5Z" stroke="black" stroke-width="5" />
                <path d="M3449.5 1691H3292V1972L3449.5 1931V1691Z" stroke="black" stroke-width="5" />
                <path d="M3282.5 1977V1691H3130.5V2016.5L3282.5 1977Z" stroke="black"
                    stroke-width="5" />
                <path d="M3017 2046V1769H3119.5V2019.5L3017 2046Z" stroke="black" stroke-width="5" />
                <path d="M2900 1769H3007.5V2049L2900 2079V1769Z" stroke="black" stroke-width="5" />
                <path d="M2637 1967V1875H2733.5V1967H2637Z" stroke="black" stroke-width="5" />
            </g>
            <path id="Vector 24"
                d="M4086 1727V1573V1566L4087 1559.5L4088.5 1554L4092 1548.5L4095.5 1544.5L4100.5 1541L4107.5 1538.5L4115 1538H4121.5H4368.5H4612L4617.5 1539L4622.5 1540.5L4630.5 1545.5L4636 1550.5L4641.5 1556L4644.5 1561L4646.5 1567L4648 1583V1727L5445 1764.5L5486.5 1650L5959 1804L6583 2432.5V2630.5H5293V2730H4983V2676H4904V2740.5H4648V2884H3961V3279.5H2975V2178.5L3555.5 2022.5V1864.5L4086 1727Z"
                stroke="black" stroke-width="5" />
            <g id="Vector 23">
                <path d="M4352 998V911.5H4426.5V998H4352Z" stroke="black" stroke-width="5" />
                <path d="M4352 1191V1102.5H4426.5V1191H4352Z" stroke="black" stroke-width="5" />
                <path d="M4464 1038.5V866.5H4554.5V1038.5H4464Z" stroke="black" stroke-width="5" />
                <path d="M4563.5 1038.5V866.5H4653.5V1038.5H4563.5Z" stroke="black" stroke-width="5" />
                <path d="M4464 1201V1048.5H4653.5V1201H4464Z" stroke="black" stroke-width="5" />
                <path d="M4464 1383.5V1209H4598.5V1383.5H4464Z" stroke="black" stroke-width="5" />
                <path d="M4605 1383.5V1209H4743V1383.5H4605Z" stroke="black" stroke-width="5" />
                <path d="M4663.5 1201V1038.5H4979V1201H4901.5V1162H4789.5V1222H4753V1201H4663.5Z"
                    stroke="black" stroke-width="5" />
                <path
                    d="M4796.5 1229.5V1171.5H4895V1201H4819V1371.5H4862.5V1528H4748V1371.5H4753V1229.5H4796.5Z"
                    stroke="black" stroke-width="5" />
                <path d="M4828 1361V1209H4979V1528H4868.5V1361H4828Z" stroke="black"
                    stroke-width="5" />
                <path d="M4988.5 1201V1038.5H5063V1201H4988.5Z" stroke="black" stroke-width="5" />
                <path d="M5143 1038.5H5071V1201H5143V1038.5Z" stroke="black" stroke-width="5" />
                <path d="M5151.5 1201V1038.5H5307V1201H5151.5Z" stroke="black" stroke-width="5" />
                <path d="M5314.5 1201V1038.5H5387.5V1201H5314.5Z" stroke="black" stroke-width="5" />
                <path d="M5393 1201V1038.5H5461V1201H5393Z" stroke="black" stroke-width="5" />
                <path d="M5475 1201V1038.5H5547V1201H5475Z" stroke="black" stroke-width="5" />
                <path d="M5556 1201V1038.5H5624.5V1201H5556Z" stroke="black" stroke-width="5" />
                <path d="M5143 1209H4988.5V1528H5143V1209Z" stroke="black" stroke-width="5" />
                <path d="M5151.5 1528V1209H5307V1528H5151.5Z" stroke="black" stroke-width="5" />
                <path d="M5314.5 1528V1209H5624.5V1528H5314.5Z" stroke="black" stroke-width="5" />
                <path d="M5638 1155.5V1051.5H5784V1155.5H5638Z" stroke="black" stroke-width="5" />
                <path d="M5794 1163.5V1038.5H5971V1127.5H5877.5V1163.5H5794Z" stroke="black"
                    stroke-width="5" />
                <path d="M5638 1170H5784V1367L5877.5 1460.5L5808.5 1528H5638V1170Z" stroke="black"
                    stroke-width="5" />
                <path d="M5794 1191V1170H5886.5V1139.5H5971V1191H5794Z" stroke="black"
                    stroke-width="5" />
                <path d="M5794 1360.5V1201H5971V1377L5886.5 1452L5794 1360.5Z" stroke="black"
                    stroke-width="5" />
                <path d="M6035 937.5L6102 864H6237L6035 1072.5V937.5Z" stroke="black"
                    stroke-width="5" />
                <path d="M6102 1127.5L6298.5 914.5L6307.5 1051.5L6237 1127.5H6102Z" stroke="black"
                    stroke-width="5" />
                <path d="M6042 1082L6257 870.5L6274 885.5L6058.5 1099L6042 1082Z" stroke="black"
                    stroke-width="5" />
                <path d="M6065.5 1104.5L6278.5 890L6296.5 906.5L6083 1123L6065.5 1104.5Z"
                    stroke="black" stroke-width="5" />
                <path d="M6596.5 515.5V438H6666V515.5H6596.5Z" stroke="black" stroke-width="5" />
                <path d="M5726 359V289H5794V359H5726Z" stroke="black" stroke-width="5" />
                <path d="M4862.5 390V315H4932.5V390H4862.5Z" stroke="black" stroke-width="5" />
                <path d="M6056 1266L6109.5 1216.5L6127 1234.5L6075 1284L6056 1266Z" stroke="black"
                    stroke-width="5" />
                <path d="M5877.5 1576L6042 1414.5L6158 1539.5L5990.5 1700L5877.5 1576Z"
                    stroke="black" stroke-width="5" />
                <path d="M5946 1406.5L5971 1384L6015 1429.5L5990 1453.5L5946 1406.5Z" stroke="black"
                    stroke-width="5" />
                <path d="M5995 1706L6163.5 1543.5L6273 1652.5L6104 1818L5995 1706Z" stroke="black"
                    stroke-width="5" />
            </g>
            <g id="Vector 30">
                <path
                    d="M7099 1086.5L7128.5 1118.5L7161 1086.5L7203 1131.5L7240 1097L7264 1122.5L7387 994L7372 982L7295.5 1061.5L7252 1023L7207 1069L7092 958.5L7023 1028L7087.5 1097L7099 1086.5Z"
                    stroke="black" stroke-width="5" />
                <path d="M7003.5 1247.5L7023 1227.5L7043 1247.5L7023 1267.5L7003.5 1247.5Z"
                    stroke="black" stroke-width="5" />
                <path
                    d="M7065 1250L7026 1287L7055.5 1321L7092 1287L7207 1398.5L7311 1297.5L7295.5 1280.5L7372 1205.5L7291 1118.5L7266.5 1139L7240 1110.5L7203 1145L7161 1097L7110.5 1145L7135.5 1168.5L7117 1186L7096.5 1165L7053 1205.5L7070.5 1225L7055.5 1239.5L7065 1250Z"
                    stroke="black" stroke-width="5" />
            </g>
        </g>
    </g>
    <g id="Rectangle">
        <rect x="40" y="4" width="48.7578" height="30" rx="3" fill="white" />
        <rect x="40.5" y="4.5" width="47.7578" height="29" rx="2.5" stroke="white"
            stroke-opacity="0.0980392" />
    </g>
    <path id="Facility_2"
        d="M46.9688 22V14H51.7656V14.8594H47.9375V17.5625H51.4063V18.4219H47.9375V22H46.9688ZM55.0654 22.1406C54.6852 22.1406 54.3402 22.069 54.0303 21.9258C53.7204 21.7799 53.4743 21.5703 53.292 21.2969C53.1097 21.0208 53.0186 20.6875 53.0186 20.2969C53.0186 19.9531 53.0863 19.6745 53.2217 19.4609C53.3571 19.2448 53.5381 19.0755 53.7646 18.9531C53.9912 18.8307 54.2412 18.7396 54.5146 18.6797C54.7907 18.6172 55.068 18.5677 55.3467 18.5313C55.7113 18.4844 56.0068 18.4492 56.2334 18.4258C56.4626 18.3997 56.6292 18.3568 56.7334 18.2969C56.8402 18.237 56.8936 18.1328 56.8936 17.9844V17.9531C56.8936 17.5677 56.7881 17.2682 56.5771 17.0547C56.3688 16.8411 56.0524 16.7344 55.6279 16.7344C55.1878 16.7344 54.8428 16.8307 54.5928 17.0234C54.3428 17.2161 54.167 17.4219 54.0654 17.6406L53.1904 17.3281C53.3467 16.9635 53.555 16.6797 53.8154 16.4766C54.0785 16.2708 54.3649 16.1276 54.6748 16.0469C54.9873 15.9635 55.2946 15.9219 55.5967 15.9219C55.7894 15.9219 56.0107 15.9453 56.2607 15.9922C56.5133 16.0365 56.7568 16.1289 56.9912 16.2695C57.2282 16.4102 57.4248 16.6224 57.5811 16.9062C57.7373 17.1901 57.8154 17.5703 57.8154 18.0469V22H56.8936V21.1875H56.8467C56.7842 21.3177 56.68 21.457 56.5342 21.6055C56.3883 21.7539 56.1943 21.8802 55.9521 21.9844C55.71 22.0885 55.4144 22.1406 55.0654 22.1406ZM55.2061 21.3125C55.5706 21.3125 55.8779 21.2409 56.1279 21.0977C56.3805 20.9544 56.5706 20.7695 56.6982 20.543C56.8285 20.3164 56.8936 20.0781 56.8936 19.8281V18.9844C56.8545 19.0312 56.7686 19.0742 56.6357 19.1133C56.5055 19.1497 56.3545 19.1823 56.1826 19.2109C56.0133 19.237 55.848 19.2604 55.6865 19.2812C55.5277 19.2995 55.3988 19.3151 55.2998 19.3281C55.0602 19.3594 54.8363 19.4102 54.6279 19.4805C54.4222 19.5482 54.2555 19.651 54.1279 19.7891C54.0029 19.9245 53.9404 20.1094 53.9404 20.3437C53.9404 20.6641 54.0589 20.9062 54.2959 21.0703C54.5355 21.2318 54.8389 21.3125 55.2061 21.3125ZM61.9355 22.125C61.373 22.125 60.8887 21.9922 60.4824 21.7266C60.0762 21.4609 59.7637 21.0951 59.5449 20.6289C59.3262 20.1628 59.2168 19.6302 59.2168 19.0312C59.2168 18.4219 59.3288 17.8841 59.5527 17.418C59.7793 16.9492 60.0944 16.5833 60.498 16.3203C60.9043 16.0547 61.3783 15.9219 61.9199 15.9219C62.3418 15.9219 62.722 16 63.0605 16.1562C63.3991 16.3125 63.6764 16.5312 63.8926 16.8125C64.1087 17.0937 64.2428 17.4219 64.2949 17.7969H63.373C63.3027 17.5234 63.1465 17.2812 62.9043 17.0703C62.6647 16.8568 62.3418 16.75 61.9355 16.75C61.5762 16.75 61.2611 16.8437 60.9902 17.0312C60.722 17.2161 60.5124 17.4779 60.3613 17.8164C60.2129 18.1523 60.1387 18.5469 60.1387 19C60.1387 19.4635 60.2116 19.8672 60.3574 20.2109C60.5059 20.5547 60.7142 20.8216 60.9824 21.0117C61.2533 21.2018 61.571 21.2969 61.9355 21.2969C62.1751 21.2969 62.3926 21.2552 62.5879 21.1719C62.7832 21.0885 62.9486 20.9688 63.084 20.8125C63.2194 20.6562 63.3158 20.4687 63.373 20.25H64.2949C64.2428 20.6042 64.1139 20.9232 63.9082 21.207C63.7051 21.4883 63.4355 21.7122 63.0996 21.8789C62.7663 22.043 62.3783 22.125 61.9355 22.125ZM65.6426 22V16H66.5645V22H65.6426ZM66.1113 15C65.9316 15 65.7767 14.9388 65.6465 14.8164C65.5189 14.694 65.4551 14.5469 65.4551 14.375C65.4551 14.2031 65.5189 14.056 65.6465 13.9336C65.7767 13.8112 65.9316 13.75 66.1113 13.75C66.291 13.75 66.4447 13.8112 66.5723 13.9336C66.7025 14.056 66.7676 14.2031 66.7676 14.375C66.7676 14.5469 66.7025 14.694 66.5723 14.8164C66.4447 14.9388 66.291 15 66.1113 15ZM69.1748 14V22H68.2529V14H69.1748ZM70.8633 22V16H71.7852V22H70.8633ZM71.332 15C71.1523 15 70.9974 14.9388 70.8672 14.8164C70.7396 14.694 70.6758 14.5469 70.6758 14.375C70.6758 14.2031 70.7396 14.056 70.8672 13.9336C70.9974 13.8112 71.1523 13.75 71.332 13.75C71.5117 13.75 71.6654 13.8112 71.793 13.9336C71.9232 14.056 71.9883 14.2031 71.9883 14.375C71.9883 14.5469 71.9232 14.694 71.793 14.8164C71.6654 14.9388 71.5117 15 71.332 15ZM76.083 16V16.7812H72.9736V16H76.083ZM73.8799 14.5625H74.8018V20.2812C74.8018 20.5417 74.8395 20.737 74.915 20.8672C74.9932 20.9948 75.0921 21.0807 75.2119 21.125C75.3343 21.1667 75.4632 21.1875 75.5986 21.1875C75.7002 21.1875 75.7835 21.1823 75.8486 21.1719C75.9137 21.1589 75.9658 21.1484 76.0049 21.1406L76.1924 21.9687C76.1299 21.9922 76.0426 22.0156 75.9307 22.0391C75.8187 22.0651 75.6768 22.0781 75.5049 22.0781C75.2445 22.0781 74.9893 22.0221 74.7393 21.9102C74.4919 21.7982 74.2861 21.6276 74.1221 21.3984C73.9606 21.1693 73.8799 20.8802 73.8799 20.5312V14.5625ZM78.0635 24.25C77.9072 24.25 77.7679 24.237 77.6455 24.2109C77.5231 24.1875 77.4385 24.1641 77.3916 24.1406L77.626 23.3281C77.8499 23.3854 78.0479 23.4063 78.2197 23.3906C78.3916 23.375 78.5439 23.2982 78.6768 23.1602C78.8122 23.0247 78.9359 22.8047 79.0479 22.5L79.2197 22.0313L77.001 16H78.001L79.6572 20.7812H79.7197L81.376 16H82.376L79.8291 22.875C79.7145 23.1849 79.5726 23.4414 79.4033 23.6445C79.234 23.8503 79.0374 24.0026 78.8135 24.1016C78.5921 24.2005 78.3421 24.25 78.0635 24.25Z"
        fill="black" />
</svg>