<svg width="1074" height="706" viewBox="0 0 1074 706" fill="none" xmlns="http://www.w3.org/2000/svg"
    xmlns:xlink="http://www.w3.org/1999/xlink">
    <g id="3rd Floor">
        <rect id="image 1" width="1074" height="706" fill="url(#pattern0_4_128)" />
        <path id="CHRIST SPORT" d="M756 220.5L742.5 207L770 181L783 193L756 220.5Z" stroke="black" />
        <path id="Vector 263" d="M387.5 115H380.5V127H382.5V123.5H387.5V115Z" stroke="black" />
        <path id="Vector 265" d="M595.5 180.5H610V141.5H595.5V180.5Z" stroke="black" />
        <path id="Pio&#39;s Cotton Candy"
            d="M266.5 181.5L263.5 178.5L260.5 181.5L263.5 184.5L266.5 181.5Z" stroke="black" />
        <path id="Vector 264" d="M410.5 123.5H403V130.5H410.5V123.5Z" stroke="black" />
        <path id="Vector 261" d="M275 189.5L263.5 177.5L297 144L308.5 155.5L275 189.5Z"
            stroke="black" />
        <path id="Vector 257" d="M319.5 360.5H307V387.5H319.5V360.5Z" stroke="black" />
        <path id="Vector 258" d="M266 349L255.5 338V303.5L266 294H309L319 303.5V338L309 349H266Z"
            stroke="black" />
        <path id="Bloom Studio Spa" d="M300.5 425.5H279.5V407H300.5V425.5Z" stroke="black" />
        <path id="Vector 256" d="M279.5 453V426H300V453H279.5Z" stroke="black" />
        <path id="Vector 248" d="M285.5 520H279.5V526H285.5V520Z" stroke="black" />
        <path id="Vector 249" d="M285.5 526H302.5V520H285.5V526Z" stroke="black" />
        <path id="The Landmark" d="M206.5 220H53L52.5 540.5L146.5 634H206.5V220Z" stroke="black" />
        <path id="Waffle Time" d="M263.5 199.5H266.5V203.5H263.5V200" stroke="black" />
        <path id="Vector 260" d="M270.5 204.5H254.5V232H270.5V204.5Z" stroke="black" />
        <path id="Skinstation" d="M396.5 571V547H382.5V571H396.5Z" stroke="black" />
        <path id="Elite Chropractor" d="M382.5 571H368.5V547H382.5V571Z" stroke="black" />
        <path id="Vector 247" d="M347.5 527H339.5V571H365V546H356.5V535H347.5V527Z" stroke="black" />
        <path id="Vector 246" d="M409.5 516.5V502H469V520H430.5V518.5H419.5V516.5H409.5Z"
            stroke="black" />
        <path id="In"
            d="M455 387.5H339.5V360H341V282.5H339.5V255.5L408 238.5V219.5L469 204V184L474 180H532.5L537.5 185.5V204L630.5 207.5L635.5 193.5L690 211L765 286V310.5H613.5V323.5H576V315.5H567V323.5H537.5V340.5H455V387.5Z"
            stroke="black" />
        <path id="Vector 245" d="M786 323.5H767.5V356.5H757.5V362H786V323.5Z" stroke="black" />
        <path id="Out"
            d="M246 624.5V617.5H279V625H314V666H469V357H575V362.5H1050V297L790.5 35L678 25H538V45H455.5L434 25H218V28H187.5V25H27.5V219H52V541.5L146 634H207V624.5H246Z"
            stroke="black" />
        <path id="Vector 1" d="M206.5 594V624H245V594H206.5Z" stroke="black" />
        <path id="Mirang Kurl Korean Salon" d="M245.5 560L207 560.5V539.5H225V538.5H245.5V560Z"
            stroke="black" />
        <path id="Bruno&#39;s Barbers" d="M244.5 520.5H225.5H206.5V502H244.5V520.5Z" stroke="black" />
        <path id="Hey Sugar Waxing Salon"
            d="M238.5 533.5H244.5M244.5 533.5V520.5L225.5 521V533.5H244.5Z" stroke="black" />
        <path id="Bench Fix Lab" d="M206.5 482.5V502H244.5V482.5H206.5Z" stroke="black" />
        <path id="Homecourt: Table Tennis" d="M881 362.5H786.5V322.5H881V362.5Z" stroke="black" />
        <path id="Vector 71" d="M805.5 304.5H792V313H805.5V304.5Z" stroke="black" />
        <path id="Vector 75" d="M803.5 270.5H815.5V295H783.5V288.5H786L803.5 270.5Z" stroke="black" />
        <path id="Vector 72"
            d="M828.5 304H821.5V308.5M828.5 304H835.5V308.5M828.5 304V313M828.5 313H835.5V308.5M828.5 313H821.5V308.5M821.5 308.5H835.5"
            stroke="black" />
        <path id="Vector 73"
            d="M850.5 304H844V313H850.5M850.5 304H857V308.5M850.5 304V308.5M850.5 313H857V308.5M850.5 313V308.5M850.5 308.5H857"
            stroke="black" />
        <path id="Vector 74" d="M838.5 235H823V293H838.5V235Z" stroke="black" />
        <path id="Mary Pauline Salon" d="M244.5 463.5H206.5V482.5H244.5V463.5Z" stroke="black" />
        <path id="The Powder Room Beauty Lounge" d="M206.5 463V453.5H236.5V444.5H244.5V463H206.5Z"
            stroke="black" />
        <path id="Happy Brows" d="M244.5 419.5H238.5V425.5H236.5V444.5H244.5V419.5Z" stroke="black" />
        <path id="Vector 12" d="M224.5 400.5V387.5H244.5V411H237.5V400.5H224.5Z" stroke="black" />
        <path id="Golden Cowrie Binisaya" d="M244.5 387.5H206L206.5 368.5H244.5V387.5Z"
            stroke="black" />
        <path id="Kuya J Restaurant" d="M244.5 368.5H206.5V341.5H238L244.5 348.5V368.5Z"
            stroke="black" />
        <path id="Happy Lemon" d="M244.5 267.5H238H222.5V254.5H244.5V267.5Z" stroke="black" />
        <path id="Anta Kids" d="M244.5 254.5H206.5V236.5H244.5V254.5Z" stroke="black" />
        <path id="Toy R Us" d="M206 218.5H90.5V177H244.5V198.5H208.5V217L206 218.5Z" stroke="black" />
        <path id="Vector 21"
            d="M279 617.5V613.5H287.5M287.5 613.5V619.5H313.5V615.5H333.5V634.5H318V660H377V594H279V609.5H287.5V613.5Z"
            stroke="black" />
        <path id="Vector 22" d="M396.5 660H377V594H409.5V620H405.5V636H430V622H469V666.5H396.5V660Z"
            stroke="black" />
        <path id="Vector 23" d="M413.5 620H405.5V635.5H430V622.5H413.5V620Z" stroke="black" />
        <path id="Vector 24" d="M469 622V596.5H432.5V577.5H409L409.5 620H414V622H430" stroke="black" />
        <g id="Vector 25">
            <path d="M266.5 588.5H258.5V597H266.5V588.5Z" stroke="black" />
            <path d="M266.5 572.5H258.5V576.5H266.5V572.5Z" stroke="black" />
        </g>
        <path id="Vector 254" d="M254.5 556.5H262.5V524H254.5V556.5Z" stroke="black" />
        <path id="Vector 255" d="M269.5 557H271.5V524H269.5V557Z" stroke="black" />
        <path id="Classic Savory" d="M280 406.5V388.5H319.5V400H312V406.5H280Z" stroke="black" />
        <path id="Vector 27" d="M271 515.5H255V426.5H271V515.5Z" stroke="black" />
        <path id="Vector 28" d="M271 420.5H255V369.5H271V420.5Z" stroke="black" />
        <path id="Mesa" d="M306.5 360.5H279.5V387.5H306.5V360.5Z" stroke="black" />
        <path id="Vector 33" d="M338.5 406.5H319.5V452.5H338.5V406.5Z" stroke="black" />
        <path id="Vector 34" d="M339 452.5H357.5V406H338.5V452.5" stroke="black" />
        <path id="Vector 35" d="M376.5 452.5H357.5V405.5H376.5V452.5Z" stroke="black" />
        <path id="Vector 36" d="M396.5 452.5H377L376.5 405.5H396.5V452.5Z" stroke="black" />
        <path id="Vector 37" d="M335 457.5H282.5V468.5H335V457.5Z" stroke="black" />
        <path id="Vector 38" d="M342 468V457H394V468H342Z" stroke="black" />
        <path id="Novodental" d="M279.5 502.5H300V499H309.5V489.5H318.5V474.5H279.5V502.5Z"
            stroke="black" />
        <path id="Nuat Thai" d="M337.5 495.5V474.5H356.5V495.5H337.5Z" stroke="black" />
        <path id="Vector 43" d="M376.5 495.5H356.5V474.5H376.5V495.5Z" stroke="black" />
        <path id="Passion Nails" d="M397 495.5H377L376.5 474.5H397V495.5Z" stroke="black" />
        <path id="Lay Bare Waxing Salon" d="M376.5 508.5V496H396.5V508.5H376.5Z" stroke="black" />
        <path id="Roman Baths Scrubbing Salon" d="M396.5 508.5H376.5V520.5H396.5V508.5Z"
            stroke="black" />
        <path id="Vector 47" d="M357.5 520.5H396.5V547H369V539H357.5V520.5Z" stroke="black" />
        <path id="LBC" d="M310 534H279.5V540.5H310V534Z" stroke="black" />
        <path id="Cathy Valencia Advanced Skin Clinic" d="M279.5 571V540.5H319.5V571H279.5Z"
            stroke="black" />
        <path id="Dogs And The City" d="M332.5 534H310V540.5H332.5V534Z" stroke="black" />
        <path id="Azta Urban Salon" d="M332.5 571V540.5H319.5V571H332.5Z" stroke="black" />
        <path id="Vector 53" d="M335 576.5H282.5V587.5H335V576.5Z" stroke="black" />
        <path id="Vector 54" d="M342 587.5V576.5H394V587.5H342Z" stroke="black" />
        <path id="Vector 55" d="M409 558.5V577.5H433V596.5H469.5V558.5H409Z" stroke="black" />
        <path id="Vector 56" d="M413.5 534V521H409V558H469.5V521H430V541H412V534H413.5Z"
            stroke="black" />
        <path id="Vector 58" d="M469.5 501.5H409.5V482H433.5V483.5H448V473.5H469.5V501.5Z"
            stroke="black" />
        <path id="Vector 59" d="M448 463.5V473.5H469.5V444.5H409.5V476.5H433V463.5H448Z"
            stroke="black" />
        <path id="Fashion TV" d="M409.5 444.5H469.5V405.5H409.5V444.5Z" stroke="black" />
        <path id="Vector 61" d="M625.5 362.5H575V339.5H619V352H625.5V362.5Z" stroke="black" />
        <path id="Vector 62" d="M653 362.5H625.5V351.5H633V323.5H653V362.5Z" stroke="black" />
        <path id="Bistro Charlemagne" d="M672 362.5H653V324H672V362.5Z" stroke="black" />
        <path id="Vector 65" d="M691 362.5H672.5V323.5H691V362.5Z" stroke="black" />
        <path id="Vector 66" d="M710 362.5H691V323.5H710V362.5Z" stroke="black" />
        <path id="Vector 67" d="M729 363H710V323.5H729V363Z" stroke="black" />
        <path id="Vector 68" d="M757 363H729.5V323H760.5V332.5H746.5V356H757V363Z" stroke="black" />
        <path id="Vector 76" d="M786 288.5H783.5L773.5 278L792.5 258.5L803.5 270L786 288.5Z"
            stroke="black" />
        <path id="Vector 77"
            d="M792 258.5L773.5 278L763 267L779.5 251L785 256.5L788 253.5L792.5 258.5"
            stroke="black" />
        <path id="Merrell" d="M782.5 248L788 253.5L815.5 225L810.5 220L782.5 248Z" stroke="black" />
        <path id="Vector 270" d="M769 234.5L756 220.5L736 240L749.5 253.5L769 234.5Z" stroke="black" />
        <path id="Vector 271" d="M736 240L722.5 226.5L742.5 207L756 220.5L736 240Z" stroke="black" />
        <path id="Merrell_2" d="M815.5 251.5V225.5L788 253.5L793 258L799.5 251.5H815.5Z"
            stroke="black" />
        <path id="Vector 269"
            d="M775 247L779.5 251L763 267L749.5 253.5L762 241.5L767 246.5L769.5 244L773.5 248.5L775 247Z"
            stroke="black" />
        <path id="SPORTSOLOGY" d="M815.5 270.5V251.5L799.5 251L792.5 258.5L804 270.5H815.5Z"
            stroke="black" />
        <path id="STRIDE &#38; STROKE"
            d="M775.5 241.5L782.5 248L810.5 220L801.5 211L776.5 235.5L779 238L775.5 241.5Z"
            stroke="black" />
        <path id="5.11 TACTICAL SERIES" d="M779 225.5L797.5 207.5L783 193.5L765 212L779 225.5Z"
            stroke="black" />
        <path id="OLYMPIC VILLAGE" d="M728.5 138L756.5 166.5L733 189.5L705 162.5L728.5 138Z"
            stroke="black" />
        <path id="PACSAFE"
            d="M765 175.5L756.5 166.5L737.5 185L743 189.5L745 187L750 191.5L753 188L757.5 191.5L764.5 185.5L759.5 181L765 175.5Z"
            stroke="#050505" />
        <path id="Vector 87"
            d="M881.5 362.5H1050.5V297.5L1014 261V277H993.5L975 287H880V294.5H871.5V316H880L881.5 362.5Z"
            stroke="black" />
        <path id="Vector 88" d="M993 264H1014.5V277H993V264Z" stroke="black" />
        <path id="Vector 90" d="M885 261.5L905 241.5L901.5 238.5L882.5 256.5H855.5V261.5H885Z"
            stroke="black" />
        <path id="Vector 91"
            d="M940 219.5L956.5 202.5L916.5 162.5L912 167L942.5 197.5L930 209L940 219.5Z"
            stroke="black" />
        <path id="GERRY&#39;S GRILL" d="M742 207L701 166.5L681 185L722.5 226.5L742 207Z"
            stroke="black" />
        <path id="MINLOU TOUCH MASSAGE" d="M837 228.5H825.5V233.5H837V228.5Z" stroke="#010101" />
        <path id="Vector 94" d="M801.5 200.5L812.5 189.5L783 160.5L771.5 171L801.5 200.5Z"
            stroke="black" />
        <path id="Vector 95" d="M777 157.5L781.5 161.5L774.5 168L770 164.5L777 157.5Z"
            stroke="black" />
        <path id="Vector 96"
            d="M777 154.5L766.5 165M766.5 165L735.5 135.5L747 124.5L777.5 154L766.5 165Z"
            stroke="black" />
        <path id="Vector 97" d="M741.5 122L745 125.5L738.5 132L735 128.5L741.5 122Z" stroke="black" />
        <path id="Vector 98"
            d="M706.5 132.5H723.5L731.5 125.5V109L723.5 101.5H707.5L699.5 109V124.5L706.5 132.5Z"
            stroke="black" />
        <path id="Vector 100" d="M638.5 180H631V169.5H638.5V180Z" stroke="black" />
        <path id="Vector 101" d="M638.5 180V141.5H653V180H638.5Z" stroke="black" />
        <path id="Vector 102" d="M630.5 141.5H638.5V151H630.5V141.5Z" stroke="black" />
        <path id="Vector 103" d="M630.5 159.5V151H638.5V159.5H630.5Z" stroke="black" />
        <path id="Vector 104" d="M630.5 169V159.5H638V169H630.5Z" stroke="black" />
        <path id="Vector 105" d="M653 180V137H671.5V160L682.5 171.5L673.5 180H653Z" stroke="black" />
        <path id="Vector 106" d="M693 162L682.5 171L671.5 160V139.5H692.5L693 162Z" stroke="black" />
        <path id="Vector 107" d="M681.5 137H671.5V122H692.5V132.5H681.5V137Z" stroke="black" />
        <path id="NATURE REPUBLIC" d="M653 121.5V137V141.5H630V121.5H653Z" stroke="black" />
        <path id="Vector 266" d="M617 150.5V141.5H610V150.5H617Z" stroke="black" />
        <path id="HEY! I AM YOGOST" d="M617 159.5V150.5H610V159.5H617Z" stroke="black" />
        <path id="Vector 267" d="M617 169.5V159.5H610V169.5H617Z" stroke="black" />
        <path id="Vector 268" d="M617 180.5V169.5H610V180.5H617Z" stroke="black" />
        <path id="Vector 110" d="M648 105.5H637V115H648V105.5Z" stroke="black" />
        <path id="Vector 111" d="M676.5 105.5H665V115H676.5V105.5Z" stroke="black" />
        <path id="MYEONG RYUN JINSA GALBI" d="M576.5 180H595.5V121.5H576.5V180Z" stroke="black" />
        <path id="Vector 116" d="M546.5 141.5V163H531.5V141.5H546.5Z" stroke="black" />
        <path id="Vector 117" d="M514.5 141.5H531.5V163.5H514.5V141.5Z" stroke="black" />
        <path id="Buko Express" d="M266.5 350.5H262.5V354H266.5V350.5Z" stroke="black" />
        <path id="MUMUSO" d="M537.5 101.5V141.5H514.5V101.5H537.5Z" stroke="black" />
        <path id="Vector 119" d="M537.5 121.5H547.5V142H537V121.5" stroke="black" />
        <path id="Vector 120"
            d="M557.5 121.5H547.5V143.5H553.5V137.5H557.5M557.5 121.5V137.5M557.5 121.5H576V180H562.5V159.5L557.5 158.5V141.5H567V137.5H557.5"
            stroke="black" />
        <path id="Vector 121" d="M560 105.5H549V114.5H560V105.5Z" stroke="black" />
        <path id="Vector 122" d="M582 105.5H571V114.5H582V105.5Z" stroke="black" />
        <path id="Vector 123" d="M610 105.5H599V115H610V105.5Z" stroke="black" />
        <path id="Vector 124" d="M698.5 169L692.5 162.5L689.5 165L696 171.5L698.5 169Z"
            stroke="black" />
        <path id="Vector 125" d="M711.5 145.5L708.5 142.5L702 149L705 151.5L711.5 145.5Z"
            stroke="black" />
        <path id="Vector 127" d="M262.5 288.5H266.5V292.5H262.5V288.5Z" stroke="black" />
        <path id="Oro China" d="M279.5 196.5H293.5V210H279.5V196.5Z" stroke="black" />
        <path id="Lulu Money Exchange" d="M293.5 196.5H306.5V210.5H293.5V196.5Z" stroke="black" />
        <path id="Mang Tomas Pinoy Sorbetes" d="M262.5 203.5H258.5V199.5H262.5V203.5Z"
            stroke="black" />
        <path id="Vector 132" d="M320.5 217.5H319.5H312.5V215H306V210.5H306.5V196.5H320.5V217.5Z"
            stroke="black" />
        <path id="Vector 133" d="M301 188L295.5 182.5L291 187L296 192.5L301 188Z" stroke="black" />
        <path id="Vector 134" d="M311.5 187.5L306.5 182.5L302 187.5L306.5 192L311.5 187.5Z"
            stroke="black" />
        <path id="Vector 135" d="M303.5 173.5L310 167.5L331 189L329 190.5H320.5L303.5 173.5Z"
            stroke="black" />
        <path id="Siomai House" d="M319.5 189L325.5 183.5L310 167.5L303.5 173.5L319.5 189Z"
            stroke="black" />
        <path id="Polland Hopia" d="M358.5 132.5L352 126.5L341 137L348 143L358.5 132.5Z"
            stroke="black" />
        <path id="Vector 136"
            d="M334 184.5L339.25 179.5M334 184.5L327 177.5M334 184.5L339.058 179.301M344.5 174.5L339.25 179.5M344.5 174.5L337.5 167.663M344.5 174.5L339.058 179.301M339.25 179.5L339.058 179.301M332.5 172.5L327 177.5M332.5 172.5L339.058 179.301M332.5 172.5L337.5 167.663M327 177.5L313 163.5L323 153.5L337.5 167.663"
            stroke="black" />
        <path id="Vector 262" d="M363.5 128L356.5 121L352 126.5L358.5 132L363.5 128Z" stroke="black" />
        <path id="Vector 137"
            d="M353.5 165.5L348.5 171L341.5 163.5L346.5 158.5M353.5 165.5L346.5 158.5M353.5 165.5L358 160.5L351.5 154M346.5 158.5L351.5 154M346.5 158.5L339 152M346.5 158.5L341.5 164L334 157M351.5 154L344.5 146.5M339 152L334 157M339 152L344.5 146.5M334 157L326.5 150L337.5 139.5L344.5 146.5"
            stroke="black" />
        <path id="Vector 138" d="M361 145L368 151.5L362.5 157L356 150.5L361 145Z" stroke="black" />
        <path id="Vector 139" d="M366 140L373.5 146.5L368 151.5L361 145L366 140Z" stroke="black" />
        <path id="Vector 140" d="M358.5 133L365.5 140L361 145L353.5 138L358.5 133Z" stroke="black" />
        <path id="Vector 143" d="M353.5 138L361 145L356 150.5L348 143L353.5 138Z" stroke="black" />
        <path id="Vector 144" d="M302 139L314 151L346.5 117.5L334.5 106.5L302 139Z" stroke="black" />
        <path id="Vector 146" d="M357.5 198.5L343 184L330.5 195.5V244.5L357.5 237V198.5Z"
            stroke="black" />
        <path id="MANN HANN" d="M358 198.5H395.5V227.5L358 237V198.5Z" stroke="black" />
        <path id="King Chef" d="M293 215.5H279.5V282.5H319.5V237H305.5V242H293V215.5Z"
            stroke="#090908" />
        <path id="GOLDEN GLOW TRADITIONAL THAI MASSAGE AND"
            d="M364 179.5H376.5V198.5H357.5L343 184L355.5 171L364 179.5Z" stroke="black" />
        <path id="999 HEALTH PHARMACY" d="M376.5 158H368.5L355.5 171.5L364.5 179.5H376.5V158Z"
            stroke="black" />
        <path id="BEIJING FOOT SPA" d="M394.5 158H377V198.5H394.5V158Z" stroke="black" />
        <path id="HAP CHAN" d="M414 204.5L396 209V198H394.5V158H414V204.5Z" stroke="black" />
        <path id="SHI LIN" d="M432.5 158H414V204.5L434 198.5V179.5H432.5V158Z" stroke="black" />
        <path id="Vector 153" d="M459.5 158.5H432.5V180H459.5V158.5Z" stroke="black" />
        <path id="Vector 155" d="M180.5 162H113.5V171.5H180.5V162Z" stroke="black" />
        <path id="Vector 156" d="M256 162.5H189V172H247L256 162.5Z" stroke="black" />
        <path id="Vector 159" d="M225.5 117.5V110.5H243.5V115.5L247.5 117.5V120.5H235V117.5H225.5Z"
            stroke="black" />
        <path id="Washroom" d="M225.5 126.5V120.5H247.5V133.5H229.5V126.5H225.5Z" stroke="#05D9FF" />
        <path id="Vector 161" d="M225.5 143.5H247.5V134.5H225.5V143.5Z" stroke="black" />
        <path id="Timezone"
            d="M272 154.5H225.5V143.5H247.5V117.5L244 115.5V110.5H225.5V90.5H326.5V100L272 154.5Z"
            stroke="black" />
        <path id="Timezone_2"
            d="M98 154.5H219.5V144L195.5 143V139.5H190.5V122.5H197.5V107.5H208.5V103.5H219.5V90.5H98V154.5Z"
            stroke="black" />
        <path id="Vector 164" d="M181 85H112.5V74H181V85Z" stroke="black" />
        <path id="Vector 165" d="M242.5 74.5H188.5V85.5H242.5V74.5Z" stroke="black" />
        <path id="Vector 166" d="M318.5 74.5H250.5V85.5H318.5V74.5Z" stroke="black" />
        <path id="Vector 168" d="M403 130.5H410.5V115H394.5V123.5H403V130.5Z" stroke="black" />
        <path id="Izahr Money Changer" d="M374 115H380.5V126.5H374V115Z" stroke="black" />
        <path id="Vector 171" d="M438.5 102H416.5V119.5H438.5V102Z" stroke="black" />
        <path id="Vector 172" d="M438.5 124H416.5V139.5H438.5V124Z" stroke="black" />
        <path id="Ms. Tanghulu" d="M408.5 102H416.5V110H408.5V102Z" stroke="black" />
        <path id="Shou La Mien Handpulled Noodles" d="M391.5 102H408.5V110H391.5V102Z"
            stroke="black" />
        <path id="Eng Bee Tin Chinese Deli" d="M375.5 102H391.5V110H375.5V102Z" stroke="black" />
        <path id="ASINA MART" d="M468.5 101.5H445.5V158H468.5V101.5Z" stroke="black" />
        <path id="SHABWAY SHABU-SHABU &#38; UNLIMITED GRILL" d="M492 101.5H468.5V158H492V101.5Z"
            stroke="black" />
        <path id="Vector 178" d="M507.5 112.5H498.5V120.5H507.5V112.5Z" stroke="black" />
        <path id="Vector 179" d="M507.5 124.5H498.5V133.5H507.5V124.5Z" stroke="black" />
        <path id="Vector 180" d="M351.5 97L348 94L342 100L345 103L351.5 97Z" stroke="black" />
        <path id="Vector 181" d="M348.5 106.5L345 103L351.5 97L355 100L348.5 106.5Z" stroke="black" />
        <path id="Vector 182" d="M361.5 80.5H357.5V89.5H361.5V80.5Z" stroke="black" />
        <path id="Vector 183" d="M333.5 74.5H338.5V83.5H333.5V74.5Z" stroke="black" />
        <path id="Vector 184" d="M338.5 83.5H342.5V79.5H338.5V83.5Z" stroke="black" />
        <path id="Vector 185" d="M338.5 74.5H342.5V79.5H338.5V74.5Z" stroke="black" />
        <path id="Vector 186" d="M413.5 77.5H377.5V84.5H413.5V77.5Z" stroke="black" />
        <path id="Vector 189" d="M412.5 91.5H377.5V93.5H412.5V91.5Z" stroke="black" />
        <path id="Vector 190" d="M458.5 76.5H421.5V93.5H458.5V76.5Z" stroke="black" />
        <path id="Vector 250" d="M303 520.5H309.5V526H303V520.5Z" stroke="black" />
        <path id="Vector 251" d="M310 520.5H315.5V526H310V520.5Z" stroke="black" />
        <path id="Vector 252" d="M316.5 520.5H323.5V526H316.5V520.5Z" stroke="black" />
        <path id="Vector 253" d="M324.5 520.5H333.5V526H324.5V520.5Z" stroke="black" />
        <path id="Vector 191" d="M462.5 78.5H458.5V82.5H462.5V78.5Z" stroke="black" />
        <path id="JAS KEY SERVICE" d="M462.5 78.5H458.5V82.5H462.5V78.5Z" stroke="black" />
        <path id="PRESCRIPTO" d="M462.5 87.5H458.5V91.5H462.5V87.5Z" stroke="black" />
        <path id="Vector 194" d="M535.5 76.5H469V93.5H535.5V76.5Z" stroke="black" />
        <path id="Vector 195"
            d="M609.5 76.5H547.5V78.5H543V82H547.5V87H543V91H547.5V93.5H609.5V90H596V80.5H609.5V76.5Z"
            stroke="black" />
        <path id="Vector 197" d="M687.5 76.5H619.5V93H687.5V76.5Z" stroke="black" />
        <path id="BIBINGKINITAN!" d="M693.5 78.5H688.5V82.5H693.5V78.5Z" stroke="black" />
        <path id="KOHI MANJU" d="M693.5 87.5H688.5V91.5H693.5V87.5Z" stroke="black" />
        <path id="Vector 259" d="M271 273H254.5V240H271V273Z" stroke="#090908" />
        <path id="Pag-ibig Fund 2" d="M85.5 25H41.5V30H33V83H41.5V62.5H55.5V97H85.5V25Z"
            stroke="black" />
        <path id="Pag-ibig Fund"
            d="M49.5 89H27.5V219H54.5V194.5H72L77 198.5V210.5H85V102.5H49.5V89Z" stroke="black" />
        <path id="Roller Fever" d="M187.5 68H86V25.5H186.5V28H202.5V36.5H187.5V68Z" stroke="black" />
        <path id="Vector 205" d="M208.5 56H202.5V62.5H208.5V56Z" stroke="black" />
        <path id="Vector 206" d="M208.5 49.5H202M208.5 49.5V56H202V49.5M208.5 49.5V43.5H202V49.5"
            stroke="black" />
        <path id="Vector 207" d="M202 36.5H208.5V43.5H202V36.5Z" stroke="black" />
        <path id="Vector 208" d="M218.5 25V28M218.5 28V36.5H202.5V28H218.5Z" stroke="black" />
        <path id="Davedent Dental Services" d="M243.5 25H218.5V67.5H243.5V25Z" stroke="black" />
        <path id="MotherCare" d="M281.5 67.5V25H243.5V67.5H281.5Z" stroke="black" />
        <path id="Karada" d="M300.5 452.5H318.5V444.5H310.5V425.5H300.5V452.5Z" stroke="black" />
        <path id="Korsa Pitsop Cafe" d="M300.5 25H281.5V67.5H300.5V25Z" stroke="black" />
        <path id="Vector 212"
            d="M319.5 67.5H300.5V25H328.5V30.5H319.5V40.5H311.5V54.5H316.5V64.5H319.5V67.5Z"
            stroke="black" />
        <path id="Glad King" d="M325.5 67.5V60.5H338.5V30.5H328.5V25H357.5V67.5H325.5Z"
            stroke="black" />
        <path id="Miniso" d="M395.5 67.5H357.5V24.5H395.5V67.5Z" stroke="black" />
        <path id="N. CAT" d="M617 121.5H595.5V141.5H617V121.5Z" stroke="black" />
        <path id="Blade Auto Center"
            d="M439 29L438.6 29.5M438.6 29.5L433 36.5H414.5V55.5H411.5V62.5H414.5V67.5H395.5V25H434L438.6 29.5Z"
            stroke="black" />
        <path id="Vector 218" d="M414.5 58.5V62.5V67.5H426.5V58.5H414.5Z" stroke="black" />
        <path id="Vector 219"
            d="M446.5 47.5V46.75M446.5 46.75V46H455.5V45L438.5 29.5L433 36.5H414.5V55.5H411.5V62.5H414.5V58.5H426.5V58H431.5V46.75H446.5Z"
            stroke="black" />
        <path id="Vector 221" d="M458.5 63.5L446.5 48.5V67.5H460.5V63.5H458.5Z" stroke="black" />
        <path id="Ideal Vision Center"
            d="M468.5 67.5V45H455.5V46H446.5V48.5L458.5 63.5H460.5V67.5H468.5Z" stroke="black" />
        <path id="Dr. Kong" d="M485.5 45H468.5V67.5H485.5V45Z" stroke="black" />
        <path id="OJO Eyewear" d="M502.5 45H485.5V67.5H502.5V45Z" stroke="black" />
        <path id="Vector 272"
            d="M838.5 224.5H823.5L815 215V198.5L822.5 191.5H840.5L848.5 198.5V215L838.5 224.5Z"
            stroke="#010101" />
        <path id="Vector 225" d="M520.5 45H502.5V67.5H520.5V45Z" stroke="black" />
        <path id="Candy Corner" d="M272.5 187.5L270 185L267.5 187.5L270 190L272.5 187.5Z"
            stroke="black" />
        <path id="Sarabia Optical" d="M537.5 45H520.5V67.5H537.5V45Z" stroke="black" />
        <path id="Vector 227" d="M566.5 30.5V25H538V45H537.5V67.5H557.5V30.5H566.5Z" stroke="black" />
        <path id="Shou La Mien Handpulled Noodles_2" d="M387.5 115H394.5V123.5H387.5V115Z"
            stroke="black" />
        <path id="Oldmoon Studio" d="M576.5 67.5V51.5H562.5V67.5H576.5Z" stroke="black" />
        <path id="No. 1 Claw Machine" d="M595.5 67.5V25H566.5V30.5H576.5V67.5H595.5Z" stroke="black" />
        <path id="Dermstrata Premier" d="M331.5 474.5H319V501H331.5V474.5Z" stroke="black" />
        <path id="Vector 231" d="M614.5 67.5V25H595.5V67.5H614.5Z" stroke="black" />
        <path id="No Brand" d="M661.5 30.5V25H614.5V67.5H652.5V43.5V30.5H661.5Z" stroke="black" />
        <path id="Photoism" d="M663.5 67.5H652.5V43.5H663.5V67.5Z" stroke="black" />
        <path id="New Age Mart"
            d="M708.5 64.5V27.5L678 25H661.5V30.5H681.5V45.5H669.5V67.5H705.5L708.5 64.5Z"
            stroke="black" />
        <path id="Tong Yang Plus"
            d="M735 98L705.5 67.5L708.5 64.5V27.5L765.5 32.5V47.5H759.5V75L735 98Z" stroke="black" />
        <path id="Vector 237" d="M745 97L740.5 93L759.5 75.5V65.5H779V82.5H760L745 97Z"
            stroke="black" />
        <path id="The Alley by Vikings"
            d="M860 116.5L866 110.5L790 35L765.5 33V47.5H783V66H779.5V82.5H760L739 102.5L779.5 143L805.5 118.5L819.5 131L821.5 128.5L814.5 121.5L824.5 110.5L838.5 123.5L843.5 118.5L848 123.5L857.5 114L860 116.5Z"
            stroke="black" />
        <path id="Timezone Clawzone" d="M811.5 142L795.5 157.5L779.5 143L796.5 127L811.5 142Z"
            stroke="black" />
        <path id="A Museum: Digital Museum"
            d="M848 130.5L866 111L916.5 162.5L912 167L942 197.5L929.5 210L939.5 219.5L956.5 202.5L1014.5 261.5V264H993V277.5L975.5 286.5H880V295.5H849V261.5H885L905 241.5L912 247L927 232.5L916.5 223.5L882.5 256.5H849V226.5L869.5 206L848 184H819.5L799 163.5L813.5 149L820.5 156L825.5 151L838.5 165L851 153L849 151L858.5 141.5L848 130.5Z"
            stroke="black" />
        <path id="Sibyullee Flavors of Seoulsh" d="M238.5 301.5H207V272.5H244.5V295L238.5 301.5Z"
            stroke="black" />
        <path id="Executive Optical" d="M244.5 216.5V236.5H206.5V218.5L208.5 216.5H244.5Z"
            stroke="black" />
        <path id="Book King" d="M244.5 216.5V198.5H208.5V216.5H244.5Z" stroke="black" />
        <path id="Nailaholics Nail Salon and Spa" d="M279.5 519.5H315.5V507.5H279.5V519.5Z"
            stroke="black" />
        <path id="PWD Washroom" d="M230.5 117.5V110.5H225.5V117.5H230.5Z" stroke="#00CFFE" />
        <path id="WashRoom"
            d="M821 146.5L825.5 150.5L839 164.5L851 153L849 150.5L858 141.5L847.5 131.5L844.5 133.5L841.5 131.5L838 134.5L833 130L828 134.5L831 137.5L829 140L825.5 136.5L821 141.5L823.5 144.5L821 146.5Z"
            stroke="#0295FE" />
        <path id="PWD Washroom_2" d="M238.5 425H232.5V419.5H238.5V425Z" stroke="#009CFD" />
        <path id="Washroom_2"
            d="M206.5 420.5V453.5H236.5V425.5H238.5V419.5H232.5V429.5H226.5V424.5H221.5V420.5H206.5Z"
            stroke="#0090F8" />
        <path id="Stairs" d="M609.5 89.5V80.5H596.5V89.5H609.5Z" stroke="#FFFF00" />
        <path id="Stairs_2" d="M258.5 369.5V370M258.5 370V384.5H267.5V370H258.5Z" stroke="#FFFF00" />
        <path id="Escalator"
            d="M265.75 556.5H262.5V528.5H265.75M265.75 556.5H269V528.5H265.75M265.75 556.5V528.5"
            stroke="#FFE100" />
        <path id="Escalator_2"
            d="M265.5 240.5H262V272.5H265.5M265.5 240.5H269V272.5H265.5M265.5 240.5V272.5"
            stroke="#E1FF00" />
        <path id="Escalator_3" d="M700.5 126L724 103L724.5 102.5L730 107.5L706 131.5L700.5 126Z"
            stroke="#FFFF00" />
        <path id="Escalator_4" d="M841 222L816.5 197.5L822.5 192L846.5 216.5L841 222Z"
            stroke="#FFFF00" />
        <path id="Fire Exit" d="M207 520.5V539.5H225.5V538H238.5V533.5H225.5V520.5H207Z"
            stroke="#F90A0E" />
        <path id="Fire Exit_2" d="M576.5 30.5H566.5H557.5V61H562.5V51.5H576.5V30.5Z"
            stroke="#FA0101" />
        <path id="FireExit" d="M41.5 30V25H28V89H49.5V102.5H79V97H55V62.5H41.5V83.5H33V30H41.5Z"
            stroke="#FF0000" />
        <path id="Fire Exit_3"
            d="M820.5 132.5L819.5 131L805.5 118.5L796.5 127.5L811 141.5L820.5 132.5Z"
            stroke="#FF0000" />
        <path id="FireExit_2" d="M237 272.5V267.5H222.5V254.5H207V272.5H237Z" stroke="black" />
        <path id="Elevator" d="M891 288H885.5V292.5H891V288Z" stroke="#FA04E1" />
        <path id="Fire Exit_4" d="M562.5 159.5H546.5V179.5H562.5V159.5Z" stroke="#FF0000" />
        <path id="Fire Exit_5" d="M681.5 30.5H661.5H652.5V43.5H663.5V61.5H669.5V45.5H681.5V30.5Z"
            stroke="#FF0707" />
        <path id="Fire Exit_6"
            d="M206 407.5H215.5M206 407.5V420H215.5V407.5M206 407.5V387.5H224.5V400.5H237.5V411H231V407.5H227V410H224V407.5H215.5"
            stroke="#FF0000" />
        <path id="Fire Exit_7"
            d="M70 218.5H91V182.5H84.5V210H77.5V198.5L72 194.5H70M70 218.5H54.5V194.5H70M70 218.5V194.5"
            stroke="black" />
        <path id="PWD Washroom_3" d="M824.5 151.5L821.5 149L817.5 152L820.5 155.5L824.5 151.5Z"
            stroke="#02FEE9" />
        <path id="ATM" d="M820 146.5L818 144.5L815.5 146.5L818 148.5L820 146.5Z" stroke="#02FE20" />
        <path id="Washroom_3"
            d="M195.5 143.5H219.5V137.5H214.5V134H219.5V127H216.5V122.5H190.5V139.5H195.5V143.5Z"
            stroke="#0A6CFF" />
        <path id="WashRoom_2" d="M325.5 60.5V43.5H338.5V60.5H325.5Z" stroke="#05E6FF" />
        <path id="Fire Exit_8" d="M912 247.5L927 232.5L916.5 223.5L901.5 238.5L912 247.5Z"
            stroke="#FF0202" />
        <path id="FireExit_3" d="M208.5 103.5H219.5V122.5H197.5V107.5H208.5V103.5Z" stroke="#FF0505" />
        <path id="Fire Exit_9" d="M633 332.5H618.5V351.5H633V332.5Z" stroke="#FF0000" />
        <path id="Elevator_2" d="M575 316.5H567.5V323H575V316.5Z" stroke="#FA04E1" />
        <path id="Elevator_3" d="M770 180.5L765.5 176L760 181L765 185L770 180.5Z" stroke="#FA04E1" />
        <path id="Escalator_5" d="M410 85.5H382.5V91.5H410V85.5Z" stroke="#FFEA00" />
        <path id="Stairs_3" d="M448 199H434V180H448V199Z" stroke="#F7FF00" />
        <path id="Fire Exit_10" d="M447 464.5H434V477.5H416.5V481H434V482.5H447V464.5Z"
            stroke="#FA0404" />
        <path id="Fire Exit_11" d="M192.5 56H202V36.5H187.5V59H192.5V56Z" stroke="#FF0404" />
        <path id="Fire Exit_12" d="M320 519V501.5H333.5V519H320Z" stroke="#FF0505" />
        <path id="Fire Exit_13" d="M429.5 541V519.5H418.5V516.5H414V520.5V534.5H412.5V541H429.5Z"
            stroke="#FA0404" />
        <path id="Fire Exit_14"
            d="M338.5 30.5H328.5H319.5V40.5H311.5V54.5H316.5V64.5H319.5V43.5H338.5V30.5Z"
            stroke="#FF0101" />
        <path id="Fire Exit_15" d="M446.5 67.5V46.5H431.5V67.5H446.5Z" stroke="#FF0404" />
        <path id="Fire Exit_16" d="M782.5 47.5H759.5V65.5H782.5V47.5Z" stroke="#FF0000" />
        <path id="Fire Exit_17" d="M761 333H747V355.5H766.5V328H761V333Z" stroke="#FE0202" />
        <path id="Fire Exit_18"
            d="M828 133L821.5 128.5L815 121L824.5 110.5L838.5 123.5L843.5 118.5L848 123L857.5 114L860 117L845 133L841.5 129.5L837.5 133L832.5 128.5L828 133Z"
            stroke="#FF0000" />
        <path id="Fire Exit_19" d="M653 123.5H671.5V137H653V124" stroke="#FF0000" />
        <path id="Fire Exit_20" d="M320 633.5V616.5H332.5V633.5H320Z" stroke="#FF0505" />
        <path id="Fire Exit_21"
            d="M282 215V210.5H305V216H312V218H321V226.5H319V236.5H305V241.5H293.5V215H282Z"
            stroke="#FF0000" />
        <path id="Fire Exit_22"
            d="M742.5 206.5L757.5 192L753 188.5L750 191.5L746 187L743 190L738 185.5L733 190L709.5 167.5L706.5 171L742.5 206.5Z"
            stroke="#FF0000" />
        <path id="Fire Exit_23"
            d="M756 220.5L764.5 212L779 225.5L797.5 207.5L801 211L776 235L778.5 238L775.5 241L787.5 253.5L785 256L775.5 246.5L773.5 248.5L769 244L767 246.5L762 241L769 234L756 220.5Z"
            stroke="#FF0101" />
        <path id="Fire Exit_24" d="M403 123.5V130.5H398.5V140.5H374V127H382.5V123.5H403Z"
            stroke="#FF0707" />
        <path id="Fire Exit_25" d="M301.5 425V407H319V444H310.5V425H301.5Z" stroke="#FF0707" />
        <path id="ATM_2" d="M219.5 122.5H216.5V127H219.5V122.5Z" stroke="#05FF16" />
        <path id="ATM_3" d="M224 407.5H227V410H224V408" stroke="#00FD1D" stroke-opacity="0.86" />
    </g>
</svg>